<svg xmlns="http://www.w3.org/2000/svg" version="1.1" xmlns:xlink="http://www.w3.org/1999/xlink" xmlns:svgjs="http://svgjs.dev/svgjs" width="1500" height="964" viewBox="0 0 1500 964"><g transform="matrix(1,0,0,1,-0.4914888162729767,0.39039011052733485)"><svg viewBox="0 0 384 247" data-background-color="#000000" preserveAspectRatio="xMidYMid meet" height="964" width="1500" xmlns="http://www.w3.org/2000/svg" xmlns:xlink="http://www.w3.org/1999/xlink"><g id="tight-bounds" transform="matrix(1,0,0,1,0.12607071511456525,-0.10000911386592293)"><svg viewBox="0 0 383.7475313727848 247.2" height="247.2" width="383.7475313727848"><rect width="383.7481081479195" height="247.2000364554637" fill="url(#739f24d9-d97a-432a-a76a-afab186c3e2a)" mask="url(#c6b639e3-2b3b-4764-bf52-f97b956f703a)" data-fill-palette-color="tertiary"></rect><g><svg viewBox="0 0 395.52 254.7835126137152" height="247.2" width="383.7475313727848"><g><svg viewBox="0 0 395.52 254.7835126137152" height="254.7835126137152" width="395.52"><g id="textblocktransform"><svg viewBox="0 0 395.52 254.7835126137152" height="254.7835126137152" width="395.52" id="textblock"><g><svg viewBox="0 0 395.52 182.75321705728177" height="182.75321705728177" width="395.52"><path d="M394.594 39.197C392.735 20.227 387.435 14.954 387.435 14.954 371.165-4.585 350.86-0.374 332.619 2.434 300.414 2.548 268.339 6.721 236.208 8.959 168.767 9.301 100.749 3.686 33.643 17.534 27.339 21.783-6.54 18.368 1.121 41.625 3.129 51.3 10.456 62.037 10.232 70.914 11.236 72.47 12.631 68.904 13.226 71.142 15.309 77.174 18.711 74.329 21.501 77.895 17.614 87.418 20.403 95.347 23.062 103.656 18.377 105.819 12.371 104.794 9.675 111.965 9.396 117.163 7.89 116.176 6.235 115.949 5.026 115.797 2.59 116.366 2.999 117.997 4.394 123.574-1.594 126.799 2.162 132.263-0.422 138.181 3.948 143.303 3.353 149.715 3.278 151.005 3.687 152.105 4.338 152.408 7.22 154.04 3.018 157.227 3.464 160.679 33.029 184.277 65.104 167.964 95.394 178.814 103.259 171.226 97.346 181.508 100.489 179.914 102.943 178.055 104.728 185.757 107.499 181.394 107.927 180.142 107.276 177.183 108.8 177.752 109.6 178.055 110.307 177.98 110.418 176.234 110.586 173.617 109.117 175.248 108.726 173.882 112.947 166.977 111.906 183.405 115.866 182.722 115.68 180.711 114.528 177.828 116.889 178.207 119.232 175.324 119.306 172.934 121.389 179.421 121.463 180.825 121.835 181.811 122.43 182.494 128.938 175.438 135.409 184.998 142.233 181.811 146.417 178.321 150.433 183.708 154.672 182.381 156.16 181.318 157.666 179.421 159.098 182.608 176.632 183.291 195.319 180.446 211.943 182.722 256.364 178.473 303.836 184.467 350.674 178.852 361.719 176.69 373.192 173.617 383.958 171.15 383.958 171.15 392.679 164.397 392.679 134.046S394.538 107.488 394.817 83.321C395.096 59.153 396.398 58.167 394.538 39.197Z" opacity="1" fill="url(#739f24d9-d97a-432a-a76a-afab186c3e2a)" data-fill-palette-color="tertiary"></path><g transform="matrix(1,0,0,1,55.76832,26.068561146666667)"><svg width="283.98335999999995" viewBox="0.45 -29.6 69.89 32.15" height="130.61609476394844" data-palette-color="#000000"><path d="M15.1-10.6L15.1-10.6Q11.55-11.7 9.73-11.7 7.9-11.7 6.25-10.18 4.6-8.65 3.25-6.75L3.25-6.75Q2.45-5.8 2.15-6.05 1.85-6.3 2.2-6.85L2.2-6.85 5.55-11.45Q6.5-12.8 7.9-13.55L7.9-13.55Q8.35-13.8 8.75-13.8 9.15-13.8 9.6-13.78 10.05-13.75 10.38-13.73 10.7-13.7 11.75-13.43 12.8-13.15 13-13.1L13-13.1 16.85-12.2Q17.65-12.95 18.57-13.3 19.5-13.65 20-13.65 20.5-13.65 20.75-13.1L20.75-13.1Q20.8-11.9 19.38-11.05 17.95-10.2 17.32-10.2 16.7-10.2 16.45-10.25L16.45-10.25Q12.1-6.7 9.45-4.35 6.8-2 6.5-1.75L6.5-1.75 8-1Q11.45 1 13.2 1L13.2 1Q14.35 1 15.75 0.2 17.15-0.6 19.75-3.03 22.35-5.45 23.75-7.4L23.75-7.4Q24-7.75 24.33-7.63 24.65-7.5 24.65-7.4L24.65-7.4Q24.65-6.7 21.58-3.55 18.5-0.4 17 0.7L17 0.7Q14.5 2.55 12.15 2.55 9.8 2.55 6.7 0.6L6.7 0.6Q5.55-0.1 4.75-0.35L4.75-0.35Q2.5 1.35 1.35 1.35L1.35 1.35Q1.05 1.35 0.8 1.25L0.8 1.25Q0.45 0.9 0.45 0.3 0.45-0.3 1.05-1.05L1.05-1.05Q2-2.35 3.85-2.35L3.85-2.35Q4.75-2.35 5.8-2L5.8-2Q7.2-3.15 7.35-3.35L7.35-3.35Q9.85-5.5 15.1-10.6ZM27.9-13.85L27.9-13.85Q29.15-13.85 29.4-13.05L29.4-13.05Q29.5-12.6 29.27-12.18 29.05-11.75 28.95-11.5 28.85-11.25 28.8-11.1L28.8-11.1Q28.55-10.6 28.3-10.15L28.3-10.15Q25.45-4.45 25.3-2.9L25.3-2.9Q25.25-2.45 25.25-1.75 25.25-1.05 25.65-0.6L25.65-0.6Q26.35 0.2 27.65-0.5 28.95-1.2 31.27-3.3 33.6-5.4 35.05-7.4L35.05-7.4Q35.25-7.65 35.5-7.53 35.75-7.4 35.75-7.28 35.75-7.15 35.65-7L35.65-7Q34.9-5.65 32.95-3.55L32.95-3.55Q29.75-0.1 27.6 0.7L27.6 0.7Q26.35 1.15 25.5 1.15L25.5 1.15Q23.5 1.15 22.85-0.75L22.85-0.75Q22.75-1.1 22.75-1.6L22.75-1.6Q22.75-3.35 24.35-6.9L24.35-6.9Q24.1-6.35 22.4-4.4L22.4-4.4Q21.95-3.9 21.7-4.4L21.7-4.4Q21.65-4.5 21.65-4.67 21.65-4.85 21.85-5.1L21.85-5.1Q24.3-8.15 25.7-10.25L25.7-10.25Q25.6-10.5 25.8-10.9L25.8-10.9Q26.8-13.7 27.55-13.85L27.55-13.85Q27.7-13.85 27.9-13.85ZM31.85-20.5L31.85-20.5 31.45-18.9Q31.45-18.45 30.8-17.45 30.15-16.45 29.8-16.45L29.8-16.45Q27.65-16.45 27.65-17.5L27.65-17.5Q27.65-17.7 29.8-19.35L29.8-19.35 30.65-20Q31.45-20.7 31.65-20.7 31.85-20.7 31.85-20.5ZM51.75-25.5L51.75-25.5Q52.35-26.6 52.35-27.2L52.35-27.2Q52.35-28.25 51.5-28.25L51.5-28.25Q50.8-28.25 49.75-27.45L49.75-27.45Q45.75-24.35 42-17.65L42-17.65Q39-12.25 37.6-8.4L37.6-8.4Q41.05-10.75 45.32-16.05 49.59-21.35 51.75-25.5ZM36.85-6.4L36.85-6.4Q36.25-4.7 36.2-4.13 36.15-3.55 36.15-2.58 36.15-1.6 36.65-0.8L36.65-0.8Q37.5 0.55 39.5-0.6L39.5-0.6Q41-1.4 43.3-3.53 45.6-5.65 46.85-7.4L46.85-7.4Q46.95-7.55 47.15-7.55L47.15-7.55Q47.6-7.55 47.4-6.9L47.4-6.9Q46.65-5.55 44.62-3.45 42.6-1.35 40.95-0.13 39.3 1.1 37.65 1.1L37.65 1.1Q33.85 1.1 33.85-2.6L33.85-2.6Q33.85-2.75 33.85-2.9L33.85-2.9Q34.05-6.4 37.4-13.48 40.75-20.55 43.45-24.15L43.45-24.15 45-26.1Q45.55-26.75 46.6-27.7L46.6-27.7Q48.59-29.6 50.72-29.6 52.85-29.6 53.6-28.3L53.6-28.3Q53.85-27.85 53.85-27 53.85-26.15 53.1-24.6L53.1-24.6Q47.95-15.65 36.85-6.4ZM48.64 0.55L48.64 0.55Q47.84 0.55 46.92 0.08 45.99-0.4 45.34-1.28 44.69-2.15 44.69-3.15 44.69-4.15 45.14-5.05L45.14-5.05Q46.14-7.15 48.37-9.13 50.59-11.1 52.99-12.5 55.39-13.9 56.79-14.25 58.19-14.6 59.52-14.6 60.84-14.6 61.79-13.93 62.74-13.25 62.74-12.5L62.74-12.5Q62.74-12.25 62.69-12.2 62.64-12.15 62.44-12.25L62.44-12.25Q61.84-13.2 59.97-13.2 58.09-13.2 55.72-11.98 53.34-10.75 51.24-8.9L51.24-8.9Q49.49-7.25 48.17-5.18 46.84-3.1 46.84-2.15L46.84-2.15Q46.84-0.3 47.89-0.3 48.94-0.3 51.09-2L51.09-2Q54.64-5 55.94-6.4L55.94-6.4Q60.54-11.35 60.89-11.35L60.89-11.35Q61.49-11.35 62.34-11 63.19-10.65 62.89-10.15L62.89-10.15Q60.34-6.55 59.89-2.9L59.89-2.9Q59.84-2.45 59.84-1.75 59.84-1.05 60.24-0.6L60.24-0.6Q60.99 0.2 62.29-0.5 63.59-1.2 65.92-3.3 68.24-5.4 69.64-7.4L69.64-7.4Q69.84-7.65 70.09-7.53 70.34-7.4 70.34-7.3L70.34-7.3Q70.34-6.55 67.97-4.03 65.59-1.5 64.34-0.6L64.34-0.6Q61.99 1.15 59.99 1.15L59.99 1.15Q58.09 1.15 57.44-0.75L57.44-0.75Q57.29-1.35 57.29-2.1L57.29-2.1Q57.29-4.35 58.24-6.85L58.24-6.85Q58.04-6.75 56.39-4.85 54.74-2.95 52.57-1.2 50.39 0.55 48.64 0.55Z" opacity="1" transform="matrix(1,0,0,1,0,0)" fill="#000000" class="wordmark-text-0" data-fill-palette-color="quaternary" id="text-0"></path></svg></g></svg></g><g transform="matrix(1,0,0,1,75.54431999999998,213.58854224477568)"><svg viewBox="0 0 244.43136 41.194970368939536" height="41.194970368939536" width="244.43136"><g transform="matrix(1,0,0,1,0,0)"><svg width="244.43136" viewBox="1.45 -54.4 517.64 87.25" height="41.194970368939536" data-palette-color="url(#8a7b35e4-4939-42ea-a0f1-b6263254f549)"></svg></g></svg></g></svg></g></svg></g><g></g></svg></g><defs></defs><mask id="76780fb9-7ffa-4f6b-9e9d-069946522e78"><g id="SvgjsG1893"><svg viewBox="0 0 383.7475313727848 247.2" height="247.2" width="383.7475313727848"><g><svg viewBox="0 0 395.52 254.7835126137152" height="247.2" width="383.7475313727848"><g><svg viewBox="0 0 395.52 254.7835126137152" height="254.7835126137152" width="395.52"><g id="SvgjsG1892"><svg viewBox="0 0 395.52 254.7835126137152" height="254.7835126137152" width="395.52" id="SvgjsSvg1891"><g><svg viewBox="0 0 395.52 182.75321705728177" height="182.75321705728177" width="395.52"><path d="M394.594 39.197C392.735 20.227 387.435 14.954 387.435 14.954 371.165-4.585 350.86-0.374 332.619 2.434 300.414 2.548 268.339 6.721 236.208 8.959 168.767 9.301 100.749 3.686 33.643 17.534 27.339 21.783-6.54 18.368 1.121 41.625 3.129 51.3 10.456 62.037 10.232 70.914 11.236 72.47 12.631 68.904 13.226 71.142 15.309 77.174 18.711 74.329 21.501 77.895 17.614 87.418 20.403 95.347 23.062 103.656 18.377 105.819 12.371 104.794 9.675 111.965 9.396 117.163 7.89 116.176 6.235 115.949 5.026 115.797 2.59 116.366 2.999 117.997 4.394 123.574-1.594 126.799 2.162 132.263-0.422 138.181 3.948 143.303 3.353 149.715 3.278 151.005 3.687 152.105 4.338 152.408 7.22 154.04 3.018 157.227 3.464 160.679 33.029 184.277 65.104 167.964 95.394 178.814 103.259 171.226 97.346 181.508 100.489 179.914 102.943 178.055 104.728 185.757 107.499 181.394 107.927 180.142 107.276 177.183 108.8 177.752 109.6 178.055 110.307 177.98 110.418 176.234 110.586 173.617 109.117 175.248 108.726 173.882 112.947 166.977 111.906 183.405 115.866 182.722 115.68 180.711 114.528 177.828 116.889 178.207 119.232 175.324 119.306 172.934 121.389 179.421 121.463 180.825 121.835 181.811 122.43 182.494 128.938 175.438 135.409 184.998 142.233 181.811 146.417 178.321 150.433 183.708 154.672 182.381 156.16 181.318 157.666 179.421 159.098 182.608 176.632 183.291 195.319 180.446 211.943 182.722 256.364 178.473 303.836 184.467 350.674 178.852 361.719 176.69 373.192 173.617 383.958 171.15 383.958 171.15 392.679 164.397 392.679 134.046S394.538 107.488 394.817 83.321C395.096 59.153 396.398 58.167 394.538 39.197Z" opacity="1" fill="black"></path><g transform="matrix(1,0,0,1,55.76832,26.068561146666667)"><svg width="283.98335999999995" viewBox="0.45 -29.6 69.89 32.15" height="130.61609476394844" data-palette-color="#000000"><path d="M15.1-10.6L15.1-10.6Q11.55-11.7 9.73-11.7 7.9-11.7 6.25-10.18 4.6-8.65 3.25-6.75L3.25-6.75Q2.45-5.8 2.15-6.05 1.85-6.3 2.2-6.85L2.2-6.85 5.55-11.45Q6.5-12.8 7.9-13.55L7.9-13.55Q8.35-13.8 8.75-13.8 9.15-13.8 9.6-13.78 10.05-13.75 10.38-13.73 10.7-13.7 11.75-13.43 12.8-13.15 13-13.1L13-13.1 16.85-12.2Q17.65-12.95 18.57-13.3 19.5-13.65 20-13.65 20.5-13.65 20.75-13.1L20.75-13.1Q20.8-11.9 19.38-11.05 17.95-10.2 17.32-10.2 16.7-10.2 16.45-10.25L16.45-10.25Q12.1-6.7 9.45-4.35 6.8-2 6.5-1.75L6.5-1.75 8-1Q11.45 1 13.2 1L13.2 1Q14.35 1 15.75 0.2 17.15-0.6 19.75-3.03 22.35-5.45 23.75-7.4L23.75-7.4Q24-7.75 24.33-7.63 24.65-7.5 24.65-7.4L24.65-7.4Q24.65-6.7 21.58-3.55 18.5-0.4 17 0.7L17 0.7Q14.5 2.55 12.15 2.55 9.8 2.55 6.7 0.6L6.7 0.6Q5.55-0.1 4.75-0.35L4.75-0.35Q2.5 1.35 1.35 1.35L1.35 1.35Q1.05 1.35 0.8 1.25L0.8 1.25Q0.45 0.9 0.45 0.3 0.45-0.3 1.05-1.05L1.05-1.05Q2-2.35 3.85-2.35L3.85-2.35Q4.75-2.35 5.8-2L5.8-2Q7.2-3.15 7.35-3.35L7.35-3.35Q9.85-5.5 15.1-10.6ZM27.9-13.85L27.9-13.85Q29.15-13.85 29.4-13.05L29.4-13.05Q29.5-12.6 29.27-12.18 29.05-11.75 28.95-11.5 28.85-11.25 28.8-11.1L28.8-11.1Q28.55-10.6 28.3-10.15L28.3-10.15Q25.45-4.45 25.3-2.9L25.3-2.9Q25.25-2.45 25.25-1.75 25.25-1.05 25.65-0.6L25.65-0.6Q26.35 0.2 27.65-0.5 28.95-1.2 31.27-3.3 33.6-5.4 35.05-7.4L35.05-7.4Q35.25-7.65 35.5-7.53 35.75-7.4 35.75-7.28 35.75-7.15 35.65-7L35.65-7Q34.9-5.65 32.95-3.55L32.95-3.55Q29.75-0.1 27.6 0.7L27.6 0.7Q26.35 1.15 25.5 1.15L25.5 1.15Q23.5 1.15 22.85-0.75L22.85-0.75Q22.75-1.1 22.75-1.6L22.75-1.6Q22.75-3.35 24.35-6.9L24.35-6.9Q24.1-6.35 22.4-4.4L22.4-4.4Q21.95-3.9 21.7-4.4L21.7-4.4Q21.65-4.5 21.65-4.67 21.65-4.85 21.85-5.1L21.85-5.1Q24.3-8.15 25.7-10.25L25.7-10.25Q25.6-10.5 25.8-10.9L25.8-10.9Q26.8-13.7 27.55-13.85L27.55-13.85Q27.7-13.85 27.9-13.85ZM31.85-20.5L31.85-20.5 31.45-18.9Q31.45-18.45 30.8-17.45 30.15-16.45 29.8-16.45L29.8-16.45Q27.65-16.45 27.65-17.5L27.65-17.5Q27.65-17.7 29.8-19.35L29.8-19.35 30.65-20Q31.45-20.7 31.65-20.7 31.85-20.7 31.85-20.5ZM51.75-25.5L51.75-25.5Q52.35-26.6 52.35-27.2L52.35-27.2Q52.35-28.25 51.5-28.25L51.5-28.25Q50.8-28.25 49.75-27.45L49.75-27.45Q45.75-24.35 42-17.65L42-17.65Q39-12.25 37.6-8.4L37.6-8.4Q41.05-10.75 45.32-16.05 49.59-21.35 51.75-25.5ZM36.85-6.4L36.85-6.4Q36.25-4.7 36.2-4.13 36.15-3.55 36.15-2.58 36.15-1.6 36.65-0.8L36.65-0.8Q37.5 0.55 39.5-0.6L39.5-0.6Q41-1.4 43.3-3.53 45.6-5.65 46.85-7.4L46.85-7.4Q46.95-7.55 47.15-7.55L47.15-7.55Q47.6-7.55 47.4-6.9L47.4-6.9Q46.65-5.55 44.62-3.45 42.6-1.35 40.95-0.13 39.3 1.1 37.65 1.1L37.65 1.1Q33.85 1.1 33.85-2.6L33.85-2.6Q33.85-2.75 33.85-2.9L33.85-2.9Q34.05-6.4 37.4-13.48 40.75-20.55 43.45-24.15L43.45-24.15 45-26.1Q45.55-26.75 46.6-27.7L46.6-27.7Q48.59-29.6 50.72-29.6 52.85-29.6 53.6-28.3L53.6-28.3Q53.85-27.85 53.85-27 53.85-26.15 53.1-24.6L53.1-24.6Q47.95-15.65 36.85-6.4ZM48.64 0.55L48.64 0.55Q47.84 0.55 46.92 0.08 45.99-0.4 45.34-1.28 44.69-2.15 44.69-3.15 44.69-4.15 45.14-5.05L45.14-5.05Q46.14-7.15 48.37-9.13 50.59-11.1 52.99-12.5 55.39-13.9 56.79-14.25 58.19-14.6 59.52-14.6 60.84-14.6 61.79-13.93 62.74-13.25 62.74-12.5L62.74-12.5Q62.74-12.25 62.69-12.2 62.64-12.15 62.44-12.25L62.44-12.25Q61.84-13.2 59.97-13.2 58.09-13.2 55.72-11.98 53.34-10.75 51.24-8.9L51.24-8.9Q49.49-7.25 48.17-5.18 46.84-3.1 46.84-2.15L46.84-2.15Q46.84-0.3 47.89-0.3 48.94-0.3 51.09-2L51.09-2Q54.64-5 55.94-6.4L55.94-6.4Q60.54-11.35 60.89-11.35L60.89-11.35Q61.49-11.35 62.34-11 63.19-10.65 62.89-10.15L62.89-10.15Q60.34-6.55 59.89-2.9L59.89-2.9Q59.84-2.45 59.84-1.75 59.84-1.05 60.24-0.6L60.24-0.6Q60.99 0.2 62.29-0.5 63.59-1.2 65.92-3.3 68.24-5.4 69.64-7.4L69.64-7.4Q69.84-7.65 70.09-7.53 70.34-7.4 70.34-7.3L70.34-7.3Q70.34-6.55 67.97-4.03 65.59-1.5 64.34-0.6L64.34-0.6Q61.99 1.15 59.99 1.15L59.99 1.15Q58.09 1.15 57.44-0.75L57.44-0.75Q57.29-1.35 57.29-2.1L57.29-2.1Q57.29-4.35 58.24-6.85L58.24-6.85Q58.04-6.75 56.39-4.85 54.74-2.95 52.57-1.2 50.39 0.55 48.64 0.55Z" opacity="1" transform="matrix(1,0,0,1,0,0)" fill="black" class="wordmark-text-0" id="SvgjsPath1890"></path></svg></g></svg></g><g transform="matrix(1,0,0,1,75.54431999999998,213.58854224477568)"><svg viewBox="0 0 244.43136 41.194970368939536" height="41.194970368939536" width="244.43136"><g transform="matrix(1,0,0,1,0,0)"><svg width="244.43136" viewBox="1.45 -54.4 517.64 87.25" height="41.194970368939536" data-palette-color="url(#8a7b35e4-4939-42ea-a0f1-b6263254f549)"><path d="M10.45 0.6Q7.55 0.6 4.75-0.25 1.95-1.1 1.45-2.1L1.45-2.1Q1.7-3.3 1.9-5.38 2.1-7.45 2.1-8.55L2.1-8.55Q2.5-8.9 3.25-8.9L3.25-8.9Q3.25-6.05 3.88-4.45 4.5-2.85 5.95-2.13 7.4-1.4 10.05-1.4L10.05-1.4Q14.75-1.4 17.88-3.38 21-5.35 21-9L21-9Q21-10.9 19.9-12.78 18.8-14.65 16-17.25L16-17.25 14.65-18.5Q12.05-20.85 10.83-22.58 9.6-24.3 9.6-26.75L9.6-26.75Q9.6-29.15 10.83-31.13 12.05-33.1 14.33-34.23 16.6-35.35 19.55-35.35L19.55-35.35Q22.45-35.35 24.5-34.35 26.55-33.35 27.15-32L27.15-32Q27.15-30.5 26.7-28.55 26.25-26.6 26.15-26.25L26.15-26.25Q25.5-26.25 24.9-26.45L24.9-26.45 25.05-27.45Q25.15-28.35 25.15-28.9L25.15-28.9Q25.15-31.2 23.93-32.23 22.7-33.25 20.1-33.25L20.1-33.25Q16.45-33.25 14.28-31.6 12.1-29.95 12.1-27.3L12.1-27.3Q12.1-25.25 13.4-23.58 14.7-21.9 17.4-19.5L17.4-19.5 18.45-18.55Q21.65-15.65 22.83-13.85 24-12.05 24-9.7L24-9.7Q24-6.3 21.93-3.98 19.85-1.65 16.73-0.53 13.6 0.6 10.45 0.6L10.45 0.6ZM57.55-54.4Q61.85-54.4 64.35-52.03 66.85-49.65 66.85-45.35L66.85-45.35 66.5-44.75Q65.4-48.15 63.05-49.78 60.7-51.4 57.4-51.4L57.4-51.4Q50.45-51.4 45.6-43.58 40.75-35.75 37.2-21L37.2-21 35.9-15.35 35.25-12.45Q37.3-15.35 40.45-18.07 43.6-20.8 45.2-20.8L45.2-20.8Q45.6-20.8 46.37-20.05 47.15-19.3 47.15-18.95L47.15-18.95Q46.2-16.2 44.9-10.9 43.6-5.6 43.6-4.15L43.6-4.15Q43.6-2.75 44.05-2.13 44.5-1.5 45.9-1.5L45.9-1.5Q48.4-1.5 50.75-3.4 53.1-5.3 54.82-7.73 56.55-10.15 57.45-12L57.45-12Q57.8-11.9 58-11.65 58.2-11.4 58.25-10.9L58.25-10.9 58.25-10.75Q58.25-10.15 57.85-9.35L57.85-9.35Q55.55-5.15 51.95-2.27 48.35 0.6 44.95 0.6L44.95 0.6Q43.2 0.6 42.15-0.5 41.1-1.6 41.1-3.6L41.1-3.6Q41.1-5.55 41.72-8.4 42.35-11.25 43.4-15.1L43.4-15.1Q43.35-14.85 43.95-17.15L43.95-17.15Q43.9-17.35 43.7-17.5 43.5-17.65 43.35-17.65L43.35-17.65Q42.85-17.65 41-16 39.15-14.35 37.25-12.05 35.35-9.75 34.4-7.75L34.4-7.75Q33.9-5.75 33.4-2.75L33.4-2.75Q33.35-2.4 33.3-2 33.25-1.6 33.15-1.2L33.15-1.2Q33-0.3 32.87 0.03 32.75 0.35 32.45 0.35L32.45 0.35Q31.85 0.35 31.1 0.05 30.35-0.25 30.35-0.7L30.35-0.7Q30.35-1.35 30.65-2.6L30.65-2.6 35-21.05Q38.65-36.65 44.3-45.53 49.95-54.4 57.55-54.4L57.55-54.4ZM82.25-17.65Q82.75-17.5 82.75-16.65L82.75-16.65Q82.75-15.4 81.75-14.08 80.75-12.75 79.02-11.9 77.3-11.05 75.25-11.05L75.25-11.05Q72.5-11.05 70.4-12.55L70.4-12.55Q70.1-11.1 69.65-9.6L69.65-9.6Q69.5-9.05 69-7.08 68.5-5.1 68.3-3.55L68.3-3.55Q67.95-2.75 66.9-1.83 65.85-0.9 64.4-0.25 62.95 0.4 61.55 0.4L61.55 0.4Q60 0.4 58.55-0.4 57.1-1.2 56.17-2.55 55.25-3.9 55.25-5.55L55.25-5.55Q55.95-7.65 56.4-9.5 56.85-11.35 57.25-13.25L57.25-13.25 57.75-15.75Q58-16.9 59.1-18.03 60.2-19.15 61.77-19.88 63.35-20.6 64.95-20.6L64.95-20.6Q65.55-20.6 66.65-20.4L66.65-20.4Q66.8-21.55 67.17-22 67.55-22.45 68.4-22.45L68.4-22.45Q68.9-22.45 69.55-22.3L69.55-22.3Q69.3-20.9 69.3-19.9L69.3-19.9Q69.3-17 71.05-15 72.8-13 75.8-13L75.8-13Q78.05-13 79.67-14.2 81.3-15.4 82.25-17.65L82.25-17.65ZM66.1-4.4Q66.5-6.4 67.25-8.95L67.25-8.95Q68.25-12.3 68.55-14.35L68.55-14.35Q67.45-15.75 67.05-17.75L67.05-17.75Q67.05-17.95 66.97-18.07 66.9-18.2 66.65-18.25L66.65-18.25Q65.9-18.55 64.95-18.55L64.95-18.55Q63.1-18.55 61.75-17.55 60.4-16.55 60.05-15.15L60.05-15.15Q59.9-14.55 58.95-10.45L58.95-10.45Q58.5-8.05 57.85-5.7L57.85-5.7Q57.85-3.85 59.1-2.83 60.35-1.8 61.75-1.8L61.75-1.8Q62.95-1.8 64.32-2.65 65.7-3.5 66.1-4.4L66.1-4.4ZM103.29-10.25Q104.04-9.8 104.04-8.75L104.04-8.75Q104.04-8.15 103.82-7.7 103.59-7.25 103.19-6.75L103.19-6.75Q100.74-3.8 96.79-2.23 92.84-0.65 89.42-0.18 85.99 0.3 83.84 0.3L83.84 0.3Q82.54 0.3 82.04 0.05 81.54-0.2 81.54-0.95L81.54-0.95Q81.54-1.35 81.69-1.8L81.69-1.8Q83.09-1.55 83.64-1.55L83.64-1.55Q86.14-1.55 87.79-3.43 89.44-5.3 90.37-7.93 91.29-10.55 92.24-14.4L92.24-14.4Q92.39-14.85 92.59-15.75L92.59-15.75Q92.59-16.4 91.57-17.35 90.54-18.3 89.84-18.3L89.84-18.3Q89.19-18.3 87.79-17.48 86.39-16.65 85.07-15.08 83.74-13.5 83.14-11.45L83.14-11.45Q81.69-6.35 80.67-1.95 79.64 2.45 78.39 8.35L78.39 8.35Q75.79 20.55 73.79 28.35L73.79 28.35Q73.44 29.7 72.89 30.38 72.34 31.05 71.59 31.33 70.84 31.6 69.14 31.95L69.14 31.95Q66.99 32.35 65.24 32.85L65.24 32.85 64.69 32.6Q67.49 31.35 68.79 30.2 70.09 29.05 70.74 27.38 71.39 25.7 72.39 21.7L72.39 21.7Q78.79-3.45 83.79-24.55L83.79-24.55Q83.89-25 84.09-25.18 84.29-25.35 84.59-25.45L84.59-25.45Q85.09-25.65 85.79-25.98 86.49-26.3 86.74-26.35L86.74-26.35Q86.89-26.3 87.19-25.9L87.19-25.9Q87.09-25.55 86.94-25.35L86.94-25.35Q86.54-24.45 84.94-18.9L84.94-18.9Q84.49-17.4 84.39-17.05L84.39-17.05Q85.74-18.6 87.62-19.8 89.49-21 90.59-21L90.59-21Q91.49-21 92.69-20.18 93.89-19.35 94.74-18.2 95.59-17.05 95.59-16.1L95.59-16.1 94.99-13.8Q94.24-10.75 93.57-8.7 92.89-6.65 91.59-4.75 90.29-2.85 88.29-1.7L88.29-1.7Q91.24-2.1 93.54-2.9 95.84-3.7 98.24-5.43 100.64-7.15 103.29-10.25L103.29-10.25ZM121.24 0.6Q118.34 0.6 115.54-0.25 112.74-1.1 112.24-2.1L112.24-2.1Q112.49-3.3 112.69-5.38 112.89-7.45 112.89-8.55L112.89-8.55Q113.29-8.9 114.04-8.9L114.04-8.9Q114.04-6.05 114.66-4.45 115.29-2.85 116.74-2.13 118.19-1.4 120.84-1.4L120.84-1.4Q125.54-1.4 128.66-3.38 131.79-5.35 131.79-9L131.79-9Q131.79-10.9 130.69-12.78 129.59-14.65 126.79-17.25L126.79-17.25 125.44-18.5Q122.84-20.85 121.61-22.58 120.39-24.3 120.39-26.75L120.39-26.75Q120.39-29.15 121.61-31.13 122.84-33.1 125.11-34.23 127.39-35.35 130.34-35.35L130.34-35.35Q133.24-35.35 135.29-34.35 137.34-33.35 137.94-32L137.94-32Q137.94-30.5 137.49-28.55 137.04-26.6 136.94-26.25L136.94-26.25Q136.29-26.25 135.69-26.45L135.69-26.45 135.84-27.45Q135.94-28.35 135.94-28.9L135.94-28.9Q135.94-31.2 134.71-32.23 133.49-33.25 130.89-33.25L130.89-33.25Q127.24-33.25 125.06-31.6 122.89-29.95 122.89-27.3L122.89-27.3Q122.89-25.25 124.19-23.58 125.49-21.9 128.19-19.5L128.19-19.5 129.24-18.55Q132.44-15.65 133.61-13.85 134.79-12.05 134.79-9.7L134.79-9.7Q134.79-6.3 132.71-3.98 130.64-1.65 127.51-0.53 124.39 0.6 121.24 0.6L121.24 0.6ZM176.99-11.55Q177.04-10 175.11-7.15 173.19-4.3 170.39-2.1 167.59 0.1 164.89 0.1L164.89 0.1Q162.99 0.1 161.76-1.13 160.54-2.35 160.54-4.85L160.54-4.85Q160.54-6.9 161.21-9.47 161.89-12.05 163.04-15.6L163.04-15.6Q163.39-16.55 163.69-17.6L163.69-17.6Q163.69-17.75 163.49-17.88 163.29-18 163.09-18L163.09-18Q162.44-18 160.51-16.13 158.59-14.25 156.61-11.83 154.64-9.4 153.99-8.15L153.99-8.15Q153.49-6.6 152.34-1.65L152.34-1.65Q152.14-0.8 152.01-0.5 151.89-0.2 151.59-0.2L151.59-0.2Q151.14-0.2 150.56-0.75 149.99-1.3 149.99-1.85L149.99-1.85Q149.99-2.4 150.49-4.25L150.49-4.25Q152.59-11.95 153.89-17.6L153.89-17.6Q153.59-18 153.14-18L153.14-18Q152.39-18 150.59-16.15 148.79-14.3 146.84-11.48 144.89-8.65 143.64-5.9L143.64-5.9Q142.89-3.45 142.29-0.25L142.29-0.25Q141.79-0.25 140.99-0.6 140.19-0.95 140.19-1.3L140.19-1.3Q140.19-1.7 140.69-3.55L140.69-3.55 144.94-20.1Q145.04-20.55 145.19-20.75 145.34-20.95 145.64-20.95L145.64-20.95Q145.94-20.95 146.66-20.65 147.39-20.35 147.59-20.15L147.59-20.15 147.14-18.55Q146.99-17.95 146.46-16.07 145.94-14.2 145.49-12.2L145.49-12.2Q147.04-14.9 148.71-16.68 150.39-18.45 151.79-19.28 153.19-20.1 153.94-20.1L153.94-20.1Q154.49-20.1 155.34-19.5 156.19-18.9 156.19-18.5L156.19-18.5Q155.74-15.75 154.89-12.3L154.89-12.3Q156.94-15.1 159.79-17.88 162.64-20.65 164.14-20.65L164.14-20.65Q164.84-20.65 165.64-20.1 166.44-19.55 166.49-18.8L166.49-18.8Q164.89-13.85 164.01-10.65 163.14-7.45 163.14-4.9L163.14-4.9Q163.14-3.4 163.64-2.73 164.14-2.05 165.44-2.05L165.44-2.05Q168.49-2.05 171.34-5.38 174.19-8.7 175.69-13.2L175.69-13.2Q176.24-13.2 176.61-12.7 176.99-12.2 176.99-11.55L176.99-11.55ZM202.08-11.55Q202.73-11.55 202.73-10.25L202.73-10.25Q202.73-7.95 200.71-5.4 198.68-2.85 195.81-1.13 192.93 0.6 190.53 0.6L190.53 0.6Q188.58 0.6 187.53-0.6 186.48-1.8 186.28-3.7L186.28-3.7Q185.03-1.9 183.13-0.75 181.23 0.4 179.73 0.4L179.73 0.4Q178.43 0.4 177.16-0.48 175.88-1.35 175.08-2.63 174.28-3.9 174.23-5.05L174.23-5.05 176.68-15.15Q176.98-16.35 178.21-17.73 179.43-19.1 181.18-20 182.93-20.9 184.73-20.9L184.73-20.9Q187.03-20.9 188.78-19.35L188.78-19.35Q189.23-20.55 189.46-20.85 189.68-21.15 190.13-21.2L190.13-21.2 192.58-21.45 192.73-21.35Q191.73-20.55 191.28-18.85L191.28-18.85Q189.73-13.05 189.16-10.3 188.58-7.55 188.58-5.45L188.58-5.45Q188.58-3.35 189.13-2.38 189.68-1.4 190.98-1.4L190.98-1.4Q192.58-1.4 194.81-2.7 197.03-4 199.03-6.33 201.03-8.65 202.08-11.55L202.08-11.55ZM179.93-1.95Q180.78-1.95 182.01-2.55 183.23-3.15 184.31-4.28 185.38-5.4 185.78-6.85L185.78-6.85 186.73-10.95Q186.93-11.95 187.43-14.18 187.93-16.4 188.23-17.6L188.23-17.6Q186.83-19 184.83-19L184.83-19Q183.28-19 182.03-18.18 180.78-17.35 179.98-16.18 179.18-15 178.98-14.1L178.98-14.1 176.98-5.2Q177.08-3.95 177.98-2.95 178.88-1.95 179.93-1.95L179.93-1.95ZM222.48-17.85Q222.68-17.8 222.83-17.55 222.98-17.3 222.98-17L222.98-17Q222.98-15.95 222.01-14.98 221.03-14 219.46-13.4 217.88-12.8 216.28-12.8L216.28-12.8Q213.78-12.8 212.01-14.1 210.23-15.4 209.73-17.75L209.73-17.75Q207.48-17.5 205.61-14.9 203.73-12.3 202.98-9.25L202.98-9.25Q202.88-8.75 202.23-6.18 201.58-3.6 200.98-0.1L200.98-0.1Q200.93 0.05 200.86 0.13 200.78 0.2 200.53 0.2L200.53 0.2Q200.18 0.2 199.48-0.1 198.78-0.4 198.78-0.75L198.78-0.75Q198.78-1.45 199.03-2.6L199.03-2.6Q202.08-16.7 202.98-20.05L202.98-20.05Q203.08-20.5 203.21-20.65 203.33-20.8 203.63-20.8L203.63-20.8Q203.83-20.8 204.48-20.48 205.13-20.15 205.53-19.8L205.53-19.8 204.63-16.9 204.33-15.9Q205.48-17.7 206.98-18.8 208.48-19.9 210.18-19.9L210.18-19.9Q210.68-19.9 211.18-19.8 211.68-19.7 211.88-19.55L211.88-19.55Q211.88-17.1 213.16-15.93 214.43-14.75 216.73-14.75L216.73-14.75Q218.78-14.75 220.13-15.45 221.48-16.15 222.48-17.85L222.48-17.85ZM237.68-8.3Q237.93-7.95 237.93-7.45L237.93-7.45Q237.93-7.05 237.78-6.75 237.63-6.45 237.28-6L237.28-6Q235.98-4.45 233.65-2.93 231.33-1.4 228.78-0.45 226.23 0.5 224.33 0.5L224.33 0.5Q222.18 0.5 220.75-0.83 219.33-2.15 219.33-4.8L219.33-4.8Q219.33-8.15 221.73-17.4L221.73-17.4 216.43-17.2Q216.33-17.25 216.15-17.38 215.98-17.5 215.93-17.6L215.93-17.6Q216.08-17.85 216.48-18.6 216.88-19.35 217.18-19.65L217.18-19.65 222.33-19.6Q223.98-25.7 226.13-32.15L226.13-32.15Q227.03-32.85 228.43-33.68 229.83-34.5 230.13-34.5L230.13-34.5Q230.58-34.3 230.68-33.95L230.68-33.95Q229.78-33.6 229.28-33.02 228.78-32.45 228.28-31.15L228.28-31.15Q226.83-27.45 224.78-19.6L224.78-19.6 237.53-19.55 237.58-18.75Q237.58-18.35 237.43-18.2 237.28-18.05 236.73-18L236.73-18Q236.03-17.95 224.23-17.5L224.23-17.5Q221.93-8.1 221.93-4.95L221.93-4.95Q221.93-3.2 222.78-2.38 223.63-1.55 225.38-1.55L225.38-1.55Q230.48-1.55 237.68-8.3L237.68-8.3ZM228.78 9.25Q228.33 9.25 228.18 8.9L228.18 8.9Q231.23 4.7 233.4 1.28 235.58-2.15 237.83-6.65L237.83-6.65Q238.58-6.35 239.13-5.83 239.68-5.3 239.68-4.75L239.68-4.75Q239.68-4.25 239.23-3.6L239.23-3.6Q236.23 0.6 234.23 3.28 232.23 5.95 229.88 8.65L229.88 8.65Q229.38 9.25 228.78 9.25L228.78 9.25ZM287.57-2.35Q287.82-1.4 287.82 1.9L287.82 1.9 287.12 1.75Q287.02 0.8 286.77 0.48 286.52 0.15 285.92-0.05L285.92-0.05Q284.67-0.45 281.62-0.68 278.57-0.9 274.72-0.9L274.72-0.9Q269.77-0.9 265.57-0.5 261.37-0.1 258.77 0.65L258.77 0.65Q258.42 0.65 257.97-0.13 257.52-0.9 257.52-1.45L257.52-1.45Q257.52-1.65 257.62-1.73 257.72-1.8 257.97-1.85L257.97-1.85Q260.37-2.25 262.15-3.33 263.92-4.4 265.82-8.2 267.72-12 269.22-19.6L269.22-19.6Q271.02-28.7 272.02-33.6L272.02-33.6Q272.17-34.25 272.4-34.55 272.62-34.85 273.07-35L273.07-35Q274.37-35.55 276.37-35.88 278.37-36.2 280.47-36.2L280.47-36.2Q280.77-36.15 281.02-35.6 281.27-35.05 281.37-34.48 281.47-33.9 281.37-33.8L281.37-33.8Q280.87-33.95 279.82-34.02 278.77-34.1 278.07-34.1L278.07-34.1Q276.32-34.1 275.55-33.35 274.77-32.6 274.47-31.25L274.47-31.25Q273.72-27.9 273.12-24.8L273.12-24.8Q271.87-18.8 271.22-16.25L271.22-16.25Q269.77-10.4 267.97-7.05 266.17-3.7 263.37-2.2L263.37-2.2Q264.97-2.3 267.42-2.55 269.87-2.8 271.27-2.9L271.27-2.9Q275.37-3.35 278.05-3.58 280.72-3.8 282.92-3.8L282.92-3.8Q285.32-3.8 286.32-3.48 287.32-3.15 287.57-2.35L287.57-2.35ZM299.02 0.35Q297.27 0.35 295.89-0.83 294.52-2 294.52-4.3L294.52-4.3Q295.27-6.7 297.12-14.95L297.12-14.95Q298.02-19 298.22-19.8L298.22-19.8Q298.87-20.9 300.02-20.9L300.02-20.9Q300.77-20.9 300.77-20.4L300.77-20.4Q300.42-19.15 299.79-16.43 299.17-13.7 298.82-12.15L298.82-12.15Q297.47-5.95 296.97-4.2L296.97-4.2Q296.97-3.05 297.64-2.43 298.32-1.8 299.42-1.8L299.42-1.8Q301.92-1.8 304.44-3.58 306.97-5.35 308.89-7.7 310.82-10.05 311.77-11.75L311.77-11.75Q312.07-11.65 312.17-11.43 312.27-11.2 312.27-10.65L312.27-10.65Q312.27-9.9 311.77-9.1L311.77-9.1Q309.07-4.85 305.72-2.25 302.37 0.35 299.02 0.35L299.02 0.35ZM301.32-27.15Q300.62-27.15 300.22-27.63 299.82-28.1 299.82-28.85L299.82-28.85Q299.82-29.85 300.47-30.68 301.12-31.5 302.12-31.5L302.12-31.5Q302.92-31.5 303.29-31 303.67-30.5 303.67-29.8L303.67-29.8Q303.67-28.8 302.99-27.98 302.32-27.15 301.32-27.15L301.32-27.15ZM320.57-22.5Q323.52-21.6 324.92-20.28 326.32-18.95 326.32-16.3L326.32-16.3Q326.32-14.25 325.34-12.48 324.37-10.7 322.37-8.65 320.37-6.6 315.72-2.35L315.72-2.35Q314.87-1.6 313.17 0L313.17 0 311.12 0Q311.32-0.8 311.32-1.15L311.32-1.15 311.27-14.2 311.27-15.95Q311.27-17.45 311.04-17.88 310.82-18.3 309.92-18.3L309.92-18.3 306.47-18.35Q306.47-19 306.82-19.35L306.82-19.35Q308.62-19.55 309.49-19.78 310.37-20 311.07-20.3 311.77-20.6 312.22-20.8L312.22-20.8Q313.37-20.4 313.67-19.35 313.97-18.3 313.97-16.55L313.97-16.55Q313.97-12.05 313.82-7.7L313.82-7.7Q313.82-6.95 313.72-2.65L313.72-2.65Q319.42-8.6 321.47-11.65 323.52-14.7 323.52-16.85L323.52-16.85Q323.52-20.1 320.07-22.25L320.07-22.25 320.57-22.5ZM351.16-11.95Q352.06-11.8 352.06-10.95L352.06-10.95Q352.06-8.95 349.49-6.28 346.91-3.6 343.41-1.68 339.91 0.25 337.56 0.25L337.56 0.25Q335.31 0.25 333.66-0.93 332.01-2.1 331.14-3.55 330.26-5 330.26-5.7L330.26-5.7Q331.06-8.55 332.01-13.6L332.01-13.6 332.56-16.4Q332.76-17.4 334.01-18.48 335.26-19.55 336.81-20.28 338.36-21 339.31-21L339.31-21Q340.06-21 341.14-20.53 342.21-20.05 343.04-19.05 343.86-18.05 343.86-16.5L343.86-16.5Q343.86-14.7 342.66-13.1 341.46-11.5 339.11-10.5 336.76-9.5 333.46-9.5L333.46-9.5 332.76-6.15Q332.76-5.7 333.29-4.65 333.81-3.6 334.99-2.75 336.16-1.9 337.96-1.9L337.96-1.9Q340.36-1.9 343.01-3.48 345.66-5.05 347.86-7.4 350.06-9.75 351.16-11.95L351.16-11.95ZM338.91-18.95Q338.31-18.95 337.36-18.45 336.41-17.95 335.64-17.2 334.86-16.45 334.71-15.8L334.71-15.8Q334.21-13.55 333.81-11.25L333.81-11.25Q337.66-11.4 339.61-12.78 341.56-14.15 341.56-15.9L341.56-15.9Q341.56-17.15 340.66-18.05 339.76-18.95 338.91-18.95L338.91-18.95ZM368.86 0.6Q365.96 0.6 363.16-0.25 360.36-1.1 359.86-2.1L359.86-2.1Q360.11-3.3 360.31-5.38 360.51-7.45 360.51-8.55L360.51-8.55Q360.91-8.9 361.66-8.9L361.66-8.9Q361.66-6.05 362.28-4.45 362.91-2.85 364.36-2.13 365.81-1.4 368.46-1.4L368.46-1.4Q373.16-1.4 376.28-3.38 379.41-5.35 379.41-9L379.41-9Q379.41-10.9 378.31-12.78 377.21-14.65 374.41-17.25L374.41-17.25 373.06-18.5Q370.46-20.85 369.23-22.58 368.01-24.3 368.01-26.75L368.01-26.75Q368.01-29.15 369.23-31.13 370.46-33.1 372.73-34.23 375.01-35.35 377.96-35.35L377.96-35.35Q380.86-35.35 382.91-34.35 384.96-33.35 385.56-32L385.56-32Q385.56-30.5 385.11-28.55 384.66-26.6 384.56-26.25L384.56-26.25Q383.91-26.25 383.31-26.45L383.31-26.45 383.46-27.45Q383.56-28.35 383.56-28.9L383.56-28.9Q383.56-31.2 382.33-32.23 381.11-33.25 378.51-33.25L378.51-33.25Q374.86-33.25 372.68-31.6 370.51-29.95 370.51-27.3L370.51-27.3Q370.51-25.25 371.81-23.58 373.11-21.9 375.81-19.5L375.81-19.5 376.86-18.55Q380.06-15.65 381.23-13.85 382.41-12.05 382.41-9.7L382.41-9.7Q382.41-6.3 380.33-3.98 378.26-1.65 375.13-0.53 372.01 0.6 368.86 0.6L368.86 0.6ZM408.76-8.3Q409.01-7.95 409.01-7.45L409.01-7.45Q409.01-7.05 408.86-6.75 408.71-6.45 408.36-6L408.36-6Q407.06-4.45 404.73-2.93 402.41-1.4 399.86-0.45 397.31 0.5 395.41 0.5L395.41 0.5Q393.26 0.5 391.83-0.83 390.41-2.15 390.41-4.8L390.41-4.8Q390.41-8.15 392.81-17.4L392.81-17.4 387.51-17.2Q387.41-17.25 387.23-17.38 387.06-17.5 387.01-17.6L387.01-17.6Q387.16-17.85 387.56-18.6 387.96-19.35 388.26-19.65L388.26-19.65 393.41-19.6Q395.06-25.7 397.21-32.15L397.21-32.15Q398.11-32.85 399.51-33.68 400.91-34.5 401.21-34.5L401.21-34.5Q401.66-34.3 401.76-33.95L401.76-33.95Q400.86-33.6 400.36-33.02 399.86-32.45 399.36-31.15L399.36-31.15Q397.91-27.45 395.86-19.6L395.86-19.6 408.61-19.55 408.66-18.75Q408.66-18.35 408.51-18.2 408.36-18.05 407.81-18L407.81-18Q407.11-17.95 395.31-17.5L395.31-17.5Q393.01-8.1 393.01-4.95L393.01-4.95Q393.01-3.2 393.86-2.38 394.71-1.55 396.46-1.55L396.46-1.55Q401.56-1.55 408.76-8.3L408.76-8.3ZM422-20.9Q422.65-20.9 423.48-20.38 424.3-19.85 424.5-19.2L424.5-19.2Q423.9-17.2 423.35-15L423.35-15Q423.1-14.15 422.3-11.28 421.5-8.4 420.2-4.25L420.2-4.25Q417.3 4.9 414.48 11.03 411.65 17.15 406.75 21.4 401.85 25.65 394.55 25.65L394.55 25.65Q390.9 25.65 388.45 24.55 386 23.45 384.83 21.7 383.65 19.95 383.65 17.85L383.65 17.85Q383.65 17.15 383.8 16.78 383.95 16.4 384.05 16.1L384.05 16.1Q385.6 19.25 388.18 20.88 390.75 22.5 395 22.5L395 22.5Q400.7 22.5 404.85 19.58 409 16.65 412 11.03 415 5.4 417.4-3.3L417.4-3.3Q415.9-1.95 413.98-0.98 412.05 0 410.8 0L410.8 0Q409.85 0 408.98-0.6 408.1-1.2 407.53-2.13 406.95-3.05 406.95-3.85L406.95-3.85Q408.3-10 409.5-15.1L409.5-15.1Q410.1-17.8 410.45-19.3L410.45-19.3Q410.65-20.1 411-20.4 411.35-20.7 412.1-20.7L412.1-20.7Q412.75-20.7 413.4-20.45L413.4-20.45 409.6-4.45Q409.6-3.7 410.23-3.05 410.85-2.4 411.6-2.4L411.6-2.4Q412.7-2.4 415-3.85 417.3-5.3 418.1-6.35L418.1-6.35Q419.2-9.05 419.9-11.75 420.6-14.45 421.5-18.6L421.5-18.6 422-20.9ZM450.45-14Q450.95-14 451.25-13.53 451.55-13.05 451.55-12.35L451.55-12.35Q451.55-11.45 451.05-10.45L451.05-10.45Q449.65-7.5 447.05-5.03 444.45-2.55 441.43-1.1 438.4 0.35 435.8 0.35L435.8 0.35Q430.5 0.35 430.5-5.8L430.5-5.8Q430.5-10.1 432.85-19.63 435.2-29.15 439.65-44.9L439.65-44.9Q440.6-48.15 441.73-49.7 442.85-51.25 444.3-51.25L444.3-51.25Q445.35-51.25 446.32-50.53 447.3-49.8 447.95-48.3 448.6-46.8 448.6-44.6L448.6-44.6Q448.6-41.05 446.93-35.6 445.25-30.15 441.9-24.1 438.55-18.05 433.85-12.9L433.85-12.9Q433-8.5 433-6.35L433-6.35Q433-3.95 433.98-2.93 434.95-1.9 436.7-1.9L436.7-1.9Q439.15-1.9 441.93-3.55 444.7-5.2 447-8 449.3-10.8 450.45-14L450.45-14ZM440.95-41.75Q436.75-26.65 434.6-16.7L434.6-16.7Q438.3-21.35 440.98-26.85 443.65-32.35 444.98-37.15 446.3-41.95 446.3-44.7L446.3-44.7Q446.3-46.25 445.85-47.38 445.4-48.5 444.35-48.5L444.35-48.5Q443.75-48.5 442.93-47.25 442.1-46 440.95-41.75L440.95-41.75ZM453.2 0.35Q451.45 0.35 450.07-0.83 448.7-2 448.7-4.3L448.7-4.3Q449.45-6.7 451.3-14.95L451.3-14.95Q452.2-19 452.4-19.8L452.4-19.8Q453.05-20.9 454.2-20.9L454.2-20.9Q454.95-20.9 454.95-20.4L454.95-20.4Q454.6-19.15 453.97-16.43 453.35-13.7 453-12.15L453-12.15Q451.65-5.95 451.15-4.2L451.15-4.2Q451.15-3.05 451.82-2.43 452.5-1.8 453.6-1.8L453.6-1.8Q456.1-1.8 458.62-3.58 461.15-5.35 463.07-7.7 465-10.05 465.95-11.75L465.95-11.75Q466.25-11.65 466.35-11.43 466.45-11.2 466.45-10.65L466.45-10.65Q466.45-9.9 465.95-9.1L465.95-9.1Q463.25-4.85 459.9-2.25 456.55 0.35 453.2 0.35L453.2 0.35ZM455.5-27.15Q454.8-27.15 454.4-27.63 454-28.1 454-28.85L454-28.85Q454-29.85 454.65-30.68 455.3-31.5 456.3-31.5L456.3-31.5Q457.1-31.5 457.47-31 457.85-30.5 457.85-29.8L457.85-29.8Q457.85-28.8 457.17-27.98 456.5-27.15 455.5-27.15L455.5-27.15ZM466.1 0.65Q463.69 0.65 462.02-0.5 460.35-1.65 460.35-3.15L460.35-3.15Q460.35-3.95 460.8-4.45 461.25-4.95 461.8-5.05L461.8-5.05Q462.35-3.15 463.6-2.2 464.85-1.25 466.65-1.25L466.65-1.25Q468.9-1.25 470.25-2.53 471.6-3.8 471.6-5.5L471.6-5.5Q471.6-6.75 470.87-7.7 470.15-8.65 468.69-9.9L468.69-9.9Q467.1-11.3 466.32-12.33 465.55-13.35 465.55-14.8L465.55-14.8Q465.55-16.35 466.52-17.75 467.5-19.15 469.02-20 470.55-20.85 472.19-20.85L472.19-20.85Q473.65-20.85 474.87-20.23 476.1-19.6 476.1-18.55L476.1-18.55Q476.1-17.55 474.9-16.45L474.9-16.45Q474.25-17.6 473.3-18.23 472.35-18.85 471.3-18.85L471.3-18.85Q469.69-18.85 468.87-17.68 468.05-16.5 468.05-15.35L468.05-15.35Q468.05-14.4 468.69-13.65 469.35-12.9 470.75-11.75L470.75-11.75Q472.44-10.3 473.35-9.15 474.25-8 474.25-6.45L474.25-6.45Q474.25-4.8 473.17-3.15 472.1-1.5 470.22-0.43 468.35 0.65 466.1 0.65L466.1 0.65ZM507.84-54.4Q512.14-54.4 514.64-52.03 517.14-49.65 517.14-45.35L517.14-45.35 516.79-44.75Q515.69-48.15 513.34-49.78 510.99-51.4 507.69-51.4L507.69-51.4Q500.74-51.4 495.89-43.58 491.04-35.75 487.49-21L487.49-21 486.19-15.35 485.54-12.45Q487.59-15.35 490.74-18.07 493.89-20.8 495.49-20.8L495.49-20.8Q495.89-20.8 496.67-20.05 497.44-19.3 497.44-18.95L497.44-18.95Q496.49-16.2 495.19-10.9 493.89-5.6 493.89-4.15L493.89-4.15Q493.89-2.75 494.34-2.13 494.79-1.5 496.19-1.5L496.19-1.5Q498.69-1.5 501.04-3.4 503.39-5.3 505.12-7.73 506.84-10.15 507.74-12L507.74-12Q508.09-11.9 508.29-11.65 508.49-11.4 508.54-10.9L508.54-10.9 508.54-10.75Q508.54-10.15 508.14-9.35L508.14-9.35Q505.84-5.15 502.24-2.27 498.64 0.6 495.24 0.6L495.24 0.6Q493.49 0.6 492.44-0.5 491.39-1.6 491.39-3.6L491.39-3.6Q491.39-5.55 492.02-8.4 492.64-11.25 493.69-15.1L493.69-15.1Q493.64-14.85 494.24-17.15L494.24-17.15Q494.19-17.35 493.99-17.5 493.79-17.65 493.64-17.65L493.64-17.65Q493.14-17.65 491.29-16 489.44-14.35 487.54-12.05 485.64-9.75 484.69-7.75L484.69-7.75Q484.19-5.75 483.69-2.75L483.69-2.75Q483.64-2.4 483.59-2 483.54-1.6 483.44-1.2L483.44-1.2Q483.29-0.3 483.17 0.03 483.04 0.35 482.74 0.35L482.74 0.35Q482.14 0.35 481.39 0.05 480.64-0.25 480.64-0.7L480.64-0.7Q480.64-1.35 480.94-2.6L480.94-2.6 485.29-21.05Q488.94-36.65 494.59-45.53 500.24-54.4 507.84-54.4L507.84-54.4ZM511.99-10.5Q511.49-10.5 511.09-10.63 510.69-10.75 510.69-10.95L510.69-10.95 512.34-20.4Q512.64-22.25 513.41-26.83 514.19-31.4 514.59-33.2L514.59-33.2Q514.94-34.95 515.29-35.48 515.64-36 516.49-36L516.49-36Q517.94-36 519.09-35.25L519.09-35.25Q518.54-34.8 518.34-34.45 518.14-34.1 517.94-33.25L517.94-33.25Q516.54-27.75 515.34-22.3 514.14-16.85 512.84-10.75L512.84-10.75Q512.74-10.5 511.99-10.5L511.99-10.5ZM510.04 0.5Q508.99 0.5 508.37-0.18 507.74-0.85 507.74-2.05L507.74-2.05Q507.74-3.45 508.54-4.4 509.34-5.35 510.64-5.35L510.64-5.35Q511.69-5.35 512.32-4.7 512.94-4.05 512.94-2.85L512.94-2.85Q512.94-1.45 512.14-0.48 511.34 0.5 510.04 0.5L510.04 0.5Z" opacity="1" transform="matrix(1,0,0,1,0,0)" fill="white" class="slogan-text-1" id="SvgjsPath1889"></path></svg></g></svg></g></svg></g></svg></g><g></g></svg></g><defs><mask></mask></defs></svg><rect width="383.7475313727848" height="247.2" fill="black" stroke="none" visibility="hidden"></rect></g></mask><linearGradient x1="0" x2="1" y1="0.5" y2="0.5" id="8a7b35e4-4939-42ea-a0f1-b6263254f549"><stop stop-color="#ffa62e" offset="0"></stop><stop stop-color="#f71b3d" offset="1"></stop></linearGradient><rect width="383.7478585697708" height="247.20001822773185" fill="url(#8a7b35e4-4939-42ea-a0f1-b6263254f549)" mask="url(#76780fb9-7ffa-4f6b-9e9d-069946522e78)" data-fill-palette-color="secondary"></rect><mask id="c6b639e3-2b3b-4764-bf52-f97b956f703a"><g id="SvgjsG1912"><svg viewBox="0 0 383.7475313727848 247.2" height="247.2" width="383.7475313727848"><g><svg viewBox="0 0 395.52 254.7835126137152" height="247.2" width="383.7475313727848"><g><svg viewBox="0 0 395.52 254.7835126137152" height="254.7835126137152" width="395.52"><g id="SvgjsG1911"><svg viewBox="0 0 395.52 254.7835126137152" height="254.7835126137152" width="395.52" id="SvgjsSvg1910"><g><svg viewBox="0 0 395.52 182.75321705728177" height="182.75321705728177" width="395.52"><path d="M394.594 39.197C392.735 20.227 387.435 14.954 387.435 14.954 371.165-4.585 350.86-0.374 332.619 2.434 300.414 2.548 268.339 6.721 236.208 8.959 168.767 9.301 100.749 3.686 33.643 17.534 27.339 21.783-6.54 18.368 1.121 41.625 3.129 51.3 10.456 62.037 10.232 70.914 11.236 72.47 12.631 68.904 13.226 71.142 15.309 77.174 18.711 74.329 21.501 77.895 17.614 87.418 20.403 95.347 23.062 103.656 18.377 105.819 12.371 104.794 9.675 111.965 9.396 117.163 7.89 116.176 6.235 115.949 5.026 115.797 2.59 116.366 2.999 117.997 4.394 123.574-1.594 126.799 2.162 132.263-0.422 138.181 3.948 143.303 3.353 149.715 3.278 151.005 3.687 152.105 4.338 152.408 7.22 154.04 3.018 157.227 3.464 160.679 33.029 184.277 65.104 167.964 95.394 178.814 103.259 171.226 97.346 181.508 100.489 179.914 102.943 178.055 104.728 185.757 107.499 181.394 107.927 180.142 107.276 177.183 108.8 177.752 109.6 178.055 110.307 177.98 110.418 176.234 110.586 173.617 109.117 175.248 108.726 173.882 112.947 166.977 111.906 183.405 115.866 182.722 115.68 180.711 114.528 177.828 116.889 178.207 119.232 175.324 119.306 172.934 121.389 179.421 121.463 180.825 121.835 181.811 122.43 182.494 128.938 175.438 135.409 184.998 142.233 181.811 146.417 178.321 150.433 183.708 154.672 182.381 156.16 181.318 157.666 179.421 159.098 182.608 176.632 183.291 195.319 180.446 211.943 182.722 256.364 178.473 303.836 184.467 350.674 178.852 361.719 176.69 373.192 173.617 383.958 171.15 383.958 171.15 392.679 164.397 392.679 134.046S394.538 107.488 394.817 83.321C395.096 59.153 396.398 58.167 394.538 39.197Z" opacity="1" fill="white"></path><g transform="matrix(1,0,0,1,55.76832,26.068561146666667)"><svg width="283.98335999999995" viewBox="0.45 -29.6 69.89 32.15" height="130.61609476394844" data-palette-color="#000000"><path d="M15.1-10.6L15.1-10.6Q11.55-11.7 9.73-11.7 7.9-11.7 6.25-10.18 4.6-8.65 3.25-6.75L3.25-6.75Q2.45-5.8 2.15-6.05 1.85-6.3 2.2-6.85L2.2-6.85 5.55-11.45Q6.5-12.8 7.9-13.55L7.9-13.55Q8.35-13.8 8.75-13.8 9.15-13.8 9.6-13.78 10.05-13.75 10.38-13.73 10.7-13.7 11.75-13.43 12.8-13.15 13-13.1L13-13.1 16.85-12.2Q17.65-12.95 18.57-13.3 19.5-13.65 20-13.65 20.5-13.65 20.75-13.1L20.75-13.1Q20.8-11.9 19.38-11.05 17.95-10.2 17.32-10.2 16.7-10.2 16.45-10.25L16.45-10.25Q12.1-6.7 9.45-4.35 6.8-2 6.5-1.75L6.5-1.75 8-1Q11.45 1 13.2 1L13.2 1Q14.35 1 15.75 0.2 17.15-0.6 19.75-3.03 22.35-5.45 23.75-7.4L23.75-7.4Q24-7.75 24.33-7.63 24.65-7.5 24.65-7.4L24.65-7.4Q24.65-6.7 21.58-3.55 18.5-0.4 17 0.7L17 0.7Q14.5 2.55 12.15 2.55 9.8 2.55 6.7 0.6L6.7 0.6Q5.55-0.1 4.75-0.35L4.75-0.35Q2.5 1.35 1.35 1.35L1.35 1.35Q1.05 1.35 0.8 1.25L0.8 1.25Q0.45 0.9 0.45 0.3 0.45-0.3 1.05-1.05L1.05-1.05Q2-2.35 3.85-2.35L3.85-2.35Q4.75-2.35 5.8-2L5.8-2Q7.2-3.15 7.35-3.35L7.35-3.35Q9.85-5.5 15.1-10.6ZM27.9-13.85L27.9-13.85Q29.15-13.85 29.4-13.05L29.4-13.05Q29.5-12.6 29.27-12.18 29.05-11.75 28.95-11.5 28.85-11.25 28.8-11.1L28.8-11.1Q28.55-10.6 28.3-10.15L28.3-10.15Q25.45-4.45 25.3-2.9L25.3-2.9Q25.25-2.45 25.25-1.75 25.25-1.05 25.65-0.6L25.65-0.6Q26.35 0.2 27.65-0.5 28.95-1.2 31.27-3.3 33.6-5.4 35.05-7.4L35.05-7.4Q35.25-7.65 35.5-7.53 35.75-7.4 35.75-7.28 35.75-7.15 35.65-7L35.65-7Q34.9-5.65 32.95-3.55L32.95-3.55Q29.75-0.1 27.6 0.7L27.6 0.7Q26.35 1.15 25.5 1.15L25.5 1.15Q23.5 1.15 22.85-0.75L22.85-0.75Q22.75-1.1 22.75-1.6L22.75-1.6Q22.75-3.35 24.35-6.9L24.35-6.9Q24.1-6.35 22.4-4.4L22.4-4.4Q21.95-3.9 21.7-4.4L21.7-4.4Q21.65-4.5 21.65-4.67 21.65-4.85 21.85-5.1L21.85-5.1Q24.3-8.15 25.7-10.25L25.7-10.25Q25.6-10.5 25.8-10.9L25.8-10.9Q26.8-13.7 27.55-13.85L27.55-13.85Q27.7-13.85 27.9-13.85ZM31.85-20.5L31.85-20.5 31.45-18.9Q31.45-18.45 30.8-17.45 30.15-16.45 29.8-16.45L29.8-16.45Q27.65-16.45 27.65-17.5L27.65-17.5Q27.65-17.7 29.8-19.35L29.8-19.35 30.65-20Q31.45-20.7 31.65-20.7 31.85-20.7 31.85-20.5ZM51.75-25.5L51.75-25.5Q52.35-26.6 52.35-27.2L52.35-27.2Q52.35-28.25 51.5-28.25L51.5-28.25Q50.8-28.25 49.75-27.45L49.75-27.45Q45.75-24.35 42-17.65L42-17.65Q39-12.25 37.6-8.4L37.6-8.4Q41.05-10.75 45.32-16.05 49.59-21.35 51.75-25.5ZM36.85-6.4L36.85-6.4Q36.25-4.7 36.2-4.13 36.15-3.55 36.15-2.58 36.15-1.6 36.65-0.8L36.65-0.8Q37.5 0.55 39.5-0.6L39.5-0.6Q41-1.4 43.3-3.53 45.6-5.65 46.85-7.4L46.85-7.4Q46.95-7.55 47.15-7.55L47.15-7.55Q47.6-7.55 47.4-6.9L47.4-6.9Q46.65-5.55 44.62-3.45 42.6-1.35 40.95-0.13 39.3 1.1 37.65 1.1L37.65 1.1Q33.85 1.1 33.85-2.6L33.85-2.6Q33.85-2.75 33.85-2.9L33.85-2.9Q34.05-6.4 37.4-13.48 40.75-20.55 43.45-24.15L43.45-24.15 45-26.1Q45.55-26.75 46.6-27.7L46.6-27.7Q48.59-29.6 50.72-29.6 52.85-29.6 53.6-28.3L53.6-28.3Q53.85-27.85 53.85-27 53.85-26.15 53.1-24.6L53.1-24.6Q47.95-15.65 36.85-6.4ZM48.64 0.55L48.64 0.55Q47.84 0.55 46.92 0.08 45.99-0.4 45.34-1.28 44.69-2.15 44.69-3.15 44.69-4.15 45.14-5.05L45.14-5.05Q46.14-7.15 48.37-9.13 50.59-11.1 52.99-12.5 55.39-13.9 56.79-14.25 58.19-14.6 59.52-14.6 60.84-14.6 61.79-13.93 62.74-13.25 62.74-12.5L62.74-12.5Q62.74-12.25 62.69-12.2 62.64-12.15 62.44-12.25L62.44-12.25Q61.84-13.2 59.97-13.2 58.09-13.2 55.72-11.98 53.34-10.75 51.24-8.9L51.24-8.9Q49.49-7.25 48.17-5.18 46.84-3.1 46.84-2.15L46.84-2.15Q46.84-0.3 47.89-0.3 48.94-0.3 51.09-2L51.09-2Q54.64-5 55.94-6.4L55.94-6.4Q60.54-11.35 60.89-11.35L60.89-11.35Q61.49-11.35 62.34-11 63.19-10.65 62.89-10.15L62.89-10.15Q60.34-6.55 59.89-2.9L59.89-2.9Q59.84-2.45 59.84-1.75 59.84-1.05 60.24-0.6L60.24-0.6Q60.99 0.2 62.29-0.5 63.59-1.2 65.92-3.3 68.24-5.4 69.64-7.4L69.64-7.4Q69.84-7.65 70.09-7.53 70.34-7.4 70.34-7.3L70.34-7.3Q70.34-6.55 67.97-4.03 65.59-1.5 64.34-0.6L64.34-0.6Q61.99 1.15 59.99 1.15L59.99 1.15Q58.09 1.15 57.44-0.75L57.44-0.75Q57.29-1.35 57.29-2.1L57.29-2.1Q57.29-4.35 58.24-6.85L58.24-6.85Q58.04-6.75 56.39-4.85 54.74-2.95 52.57-1.2 50.39 0.55 48.64 0.55Z" opacity="1" transform="matrix(1,0,0,1,0,0)" fill="black" class="wordmark-text-0" id="SvgjsPath1909"></path></svg></g></svg></g><g transform="matrix(1,0,0,1,75.54431999999998,213.58854224477568)"><svg viewBox="0 0 244.43136 41.194970368939536" height="41.194970368939536" width="244.43136"><g transform="matrix(1,0,0,1,0,0)"><svg width="244.43136" viewBox="1.45 -54.4 517.64 87.25" height="41.194970368939536" data-palette-color="url(#8a7b35e4-4939-42ea-a0f1-b6263254f549)"></svg></g></svg></g></svg></g></svg></g><g></g></svg></g><defs><mask></mask></defs><mask><g id="SvgjsG1908"><svg viewBox="0 0 383.7475313727848 247.2" height="247.2" width="383.7475313727848"><g><svg viewBox="0 0 395.52 254.7835126137152" height="247.2" width="383.7475313727848"><g><svg viewBox="0 0 395.52 254.7835126137152" height="254.7835126137152" width="395.52"><g id="SvgjsG1907"><svg viewBox="0 0 395.52 254.7835126137152" height="254.7835126137152" width="395.52" id="SvgjsSvg1906"><g><svg viewBox="0 0 395.52 182.75321705728177" height="182.75321705728177" width="395.52"><path d="M394.594 39.197C392.735 20.227 387.435 14.954 387.435 14.954 371.165-4.585 350.86-0.374 332.619 2.434 300.414 2.548 268.339 6.721 236.208 8.959 168.767 9.301 100.749 3.686 33.643 17.534 27.339 21.783-6.54 18.368 1.121 41.625 3.129 51.3 10.456 62.037 10.232 70.914 11.236 72.47 12.631 68.904 13.226 71.142 15.309 77.174 18.711 74.329 21.501 77.895 17.614 87.418 20.403 95.347 23.062 103.656 18.377 105.819 12.371 104.794 9.675 111.965 9.396 117.163 7.89 116.176 6.235 115.949 5.026 115.797 2.59 116.366 2.999 117.997 4.394 123.574-1.594 126.799 2.162 132.263-0.422 138.181 3.948 143.303 3.353 149.715 3.278 151.005 3.687 152.105 4.338 152.408 7.22 154.04 3.018 157.227 3.464 160.679 33.029 184.277 65.104 167.964 95.394 178.814 103.259 171.226 97.346 181.508 100.489 179.914 102.943 178.055 104.728 185.757 107.499 181.394 107.927 180.142 107.276 177.183 108.8 177.752 109.6 178.055 110.307 177.98 110.418 176.234 110.586 173.617 109.117 175.248 108.726 173.882 112.947 166.977 111.906 183.405 115.866 182.722 115.68 180.711 114.528 177.828 116.889 178.207 119.232 175.324 119.306 172.934 121.389 179.421 121.463 180.825 121.835 181.811 122.43 182.494 128.938 175.438 135.409 184.998 142.233 181.811 146.417 178.321 150.433 183.708 154.672 182.381 156.16 181.318 157.666 179.421 159.098 182.608 176.632 183.291 195.319 180.446 211.943 182.722 256.364 178.473 303.836 184.467 350.674 178.852 361.719 176.69 373.192 173.617 383.958 171.15 383.958 171.15 392.679 164.397 392.679 134.046S394.538 107.488 394.817 83.321C395.096 59.153 396.398 58.167 394.538 39.197Z" opacity="1" fill="black"></path><g transform="matrix(1,0,0,1,55.76832,26.068561146666667)"><svg width="283.98335999999995" viewBox="0.45 -29.6 69.89 32.15" height="130.61609476394844" data-palette-color="#000000"><path d="M15.1-10.6L15.1-10.6Q11.55-11.7 9.73-11.7 7.9-11.7 6.25-10.18 4.6-8.65 3.25-6.75L3.25-6.75Q2.45-5.8 2.15-6.05 1.85-6.3 2.2-6.85L2.2-6.85 5.55-11.45Q6.5-12.8 7.9-13.55L7.9-13.55Q8.35-13.8 8.75-13.8 9.15-13.8 9.6-13.78 10.05-13.75 10.38-13.73 10.7-13.7 11.75-13.43 12.8-13.15 13-13.1L13-13.1 16.85-12.2Q17.65-12.95 18.57-13.3 19.5-13.65 20-13.65 20.5-13.65 20.75-13.1L20.75-13.1Q20.8-11.9 19.38-11.05 17.95-10.2 17.32-10.2 16.7-10.2 16.45-10.25L16.45-10.25Q12.1-6.7 9.45-4.35 6.8-2 6.5-1.75L6.5-1.75 8-1Q11.45 1 13.2 1L13.2 1Q14.35 1 15.75 0.2 17.15-0.6 19.75-3.03 22.35-5.45 23.75-7.4L23.75-7.4Q24-7.75 24.33-7.63 24.65-7.5 24.65-7.4L24.65-7.4Q24.65-6.7 21.58-3.55 18.5-0.4 17 0.7L17 0.7Q14.5 2.55 12.15 2.55 9.8 2.55 6.7 0.6L6.7 0.6Q5.55-0.1 4.75-0.35L4.75-0.35Q2.5 1.35 1.35 1.35L1.35 1.35Q1.05 1.35 0.8 1.25L0.8 1.25Q0.45 0.9 0.45 0.3 0.45-0.3 1.05-1.05L1.05-1.05Q2-2.35 3.85-2.35L3.85-2.35Q4.75-2.35 5.8-2L5.8-2Q7.2-3.15 7.35-3.35L7.35-3.35Q9.85-5.5 15.1-10.6ZM27.9-13.85L27.9-13.85Q29.15-13.85 29.4-13.05L29.4-13.05Q29.5-12.6 29.27-12.18 29.05-11.75 28.95-11.5 28.85-11.25 28.8-11.1L28.8-11.1Q28.55-10.6 28.3-10.15L28.3-10.15Q25.45-4.45 25.3-2.9L25.3-2.9Q25.25-2.45 25.25-1.75 25.25-1.05 25.65-0.6L25.65-0.6Q26.35 0.2 27.65-0.5 28.95-1.2 31.27-3.3 33.6-5.4 35.05-7.4L35.05-7.4Q35.25-7.65 35.5-7.53 35.75-7.4 35.75-7.28 35.75-7.15 35.65-7L35.65-7Q34.9-5.65 32.95-3.55L32.95-3.55Q29.75-0.1 27.6 0.7L27.6 0.7Q26.35 1.15 25.5 1.15L25.5 1.15Q23.5 1.15 22.85-0.75L22.85-0.75Q22.75-1.1 22.75-1.6L22.75-1.6Q22.75-3.35 24.35-6.9L24.35-6.9Q24.1-6.35 22.4-4.4L22.4-4.4Q21.95-3.9 21.7-4.4L21.7-4.4Q21.65-4.5 21.65-4.67 21.65-4.85 21.85-5.1L21.85-5.1Q24.3-8.15 25.7-10.25L25.7-10.25Q25.6-10.5 25.8-10.9L25.8-10.9Q26.8-13.7 27.55-13.85L27.55-13.85Q27.7-13.85 27.9-13.85ZM31.85-20.5L31.85-20.5 31.45-18.9Q31.45-18.45 30.8-17.45 30.15-16.45 29.8-16.45L29.8-16.45Q27.65-16.45 27.65-17.5L27.65-17.5Q27.65-17.7 29.8-19.35L29.8-19.35 30.65-20Q31.45-20.7 31.65-20.7 31.85-20.7 31.85-20.5ZM51.75-25.5L51.75-25.5Q52.35-26.6 52.35-27.2L52.35-27.2Q52.35-28.25 51.5-28.25L51.5-28.25Q50.8-28.25 49.75-27.45L49.75-27.45Q45.75-24.35 42-17.65L42-17.65Q39-12.25 37.6-8.4L37.6-8.4Q41.05-10.75 45.32-16.05 49.59-21.35 51.75-25.5ZM36.85-6.4L36.85-6.4Q36.25-4.7 36.2-4.13 36.15-3.55 36.15-2.58 36.15-1.6 36.65-0.8L36.65-0.8Q37.5 0.55 39.5-0.6L39.5-0.6Q41-1.4 43.3-3.53 45.6-5.65 46.85-7.4L46.85-7.4Q46.95-7.55 47.15-7.55L47.15-7.55Q47.6-7.55 47.4-6.9L47.4-6.9Q46.65-5.55 44.62-3.45 42.6-1.35 40.95-0.13 39.3 1.1 37.65 1.1L37.65 1.1Q33.85 1.1 33.85-2.6L33.85-2.6Q33.85-2.75 33.85-2.9L33.85-2.9Q34.05-6.4 37.4-13.48 40.75-20.55 43.45-24.15L43.45-24.15 45-26.1Q45.55-26.75 46.6-27.7L46.6-27.7Q48.59-29.6 50.72-29.6 52.85-29.6 53.6-28.3L53.6-28.3Q53.85-27.85 53.85-27 53.85-26.15 53.1-24.6L53.1-24.6Q47.95-15.65 36.85-6.4ZM48.64 0.55L48.64 0.55Q47.84 0.55 46.92 0.08 45.99-0.4 45.34-1.28 44.69-2.15 44.69-3.15 44.69-4.15 45.14-5.05L45.14-5.05Q46.14-7.15 48.37-9.13 50.59-11.1 52.99-12.5 55.39-13.9 56.79-14.25 58.19-14.6 59.52-14.6 60.84-14.6 61.79-13.93 62.74-13.25 62.74-12.5L62.74-12.5Q62.74-12.25 62.69-12.2 62.64-12.15 62.44-12.25L62.44-12.25Q61.84-13.2 59.97-13.2 58.09-13.2 55.72-11.98 53.34-10.75 51.24-8.9L51.24-8.9Q49.49-7.25 48.17-5.18 46.84-3.1 46.84-2.15L46.84-2.15Q46.84-0.3 47.89-0.3 48.94-0.3 51.09-2L51.09-2Q54.64-5 55.94-6.4L55.94-6.4Q60.54-11.35 60.89-11.35L60.89-11.35Q61.49-11.35 62.34-11 63.19-10.65 62.89-10.15L62.89-10.15Q60.34-6.55 59.89-2.9L59.89-2.9Q59.84-2.45 59.84-1.75 59.84-1.05 60.24-0.6L60.24-0.6Q60.99 0.2 62.29-0.5 63.59-1.2 65.92-3.3 68.24-5.4 69.64-7.4L69.64-7.4Q69.84-7.65 70.09-7.53 70.34-7.4 70.34-7.3L70.34-7.3Q70.34-6.55 67.97-4.03 65.59-1.5 64.34-0.6L64.34-0.6Q61.99 1.15 59.99 1.15L59.99 1.15Q58.09 1.15 57.44-0.75L57.44-0.75Q57.29-1.35 57.29-2.1L57.29-2.1Q57.29-4.35 58.24-6.85L58.24-6.85Q58.04-6.75 56.39-4.85 54.74-2.95 52.57-1.2 50.39 0.55 48.64 0.55Z" opacity="1" transform="matrix(1,0,0,1,0,0)" fill="black" class="wordmark-text-0" id="SvgjsPath1905"></path></svg></g></svg></g><g transform="matrix(1,0,0,1,75.54431999999998,213.58854224477568)"><svg viewBox="0 0 244.43136 41.194970368939536" height="41.194970368939536" width="244.43136"><g transform="matrix(1,0,0,1,0,0)"><svg width="244.43136" viewBox="1.45 -54.4 517.64 87.25" height="41.194970368939536" data-palette-color="url(#8a7b35e4-4939-42ea-a0f1-b6263254f549)"><path d="M10.45 0.6Q7.55 0.6 4.75-0.25 1.95-1.1 1.45-2.1L1.45-2.1Q1.7-3.3 1.9-5.38 2.1-7.45 2.1-8.55L2.1-8.55Q2.5-8.9 3.25-8.9L3.25-8.9Q3.25-6.05 3.88-4.45 4.5-2.85 5.95-2.13 7.4-1.4 10.05-1.4L10.05-1.4Q14.75-1.4 17.88-3.38 21-5.35 21-9L21-9Q21-10.9 19.9-12.78 18.8-14.65 16-17.25L16-17.25 14.65-18.5Q12.05-20.85 10.83-22.58 9.6-24.3 9.6-26.75L9.6-26.75Q9.6-29.15 10.83-31.13 12.05-33.1 14.33-34.23 16.6-35.35 19.55-35.35L19.55-35.35Q22.45-35.35 24.5-34.35 26.55-33.35 27.15-32L27.15-32Q27.15-30.5 26.7-28.55 26.25-26.6 26.15-26.25L26.15-26.25Q25.5-26.25 24.9-26.45L24.9-26.45 25.05-27.45Q25.15-28.35 25.15-28.9L25.15-28.9Q25.15-31.2 23.93-32.23 22.7-33.25 20.1-33.25L20.1-33.25Q16.45-33.25 14.28-31.6 12.1-29.95 12.1-27.3L12.1-27.3Q12.1-25.25 13.4-23.58 14.7-21.9 17.4-19.5L17.4-19.5 18.45-18.55Q21.65-15.65 22.83-13.85 24-12.05 24-9.7L24-9.7Q24-6.3 21.93-3.98 19.85-1.65 16.73-0.53 13.6 0.6 10.45 0.6L10.45 0.6ZM57.55-54.4Q61.85-54.4 64.35-52.03 66.85-49.65 66.85-45.35L66.85-45.35 66.5-44.75Q65.4-48.15 63.05-49.78 60.7-51.4 57.4-51.4L57.4-51.4Q50.45-51.4 45.6-43.58 40.75-35.75 37.2-21L37.2-21 35.9-15.35 35.25-12.45Q37.3-15.35 40.45-18.07 43.6-20.8 45.2-20.8L45.2-20.8Q45.6-20.8 46.37-20.05 47.15-19.3 47.15-18.95L47.15-18.95Q46.2-16.2 44.9-10.9 43.6-5.6 43.6-4.15L43.6-4.15Q43.6-2.75 44.05-2.13 44.5-1.5 45.9-1.5L45.9-1.5Q48.4-1.5 50.75-3.4 53.1-5.3 54.82-7.73 56.55-10.15 57.45-12L57.45-12Q57.8-11.9 58-11.65 58.2-11.4 58.25-10.9L58.25-10.9 58.25-10.75Q58.25-10.15 57.85-9.35L57.85-9.35Q55.55-5.15 51.95-2.27 48.35 0.6 44.95 0.6L44.95 0.6Q43.2 0.6 42.15-0.5 41.1-1.6 41.1-3.6L41.1-3.6Q41.1-5.55 41.72-8.4 42.35-11.25 43.4-15.1L43.4-15.1Q43.35-14.85 43.95-17.15L43.95-17.15Q43.9-17.35 43.7-17.5 43.5-17.65 43.35-17.65L43.35-17.65Q42.85-17.65 41-16 39.15-14.35 37.25-12.05 35.35-9.75 34.4-7.75L34.4-7.75Q33.9-5.75 33.4-2.75L33.4-2.75Q33.35-2.4 33.3-2 33.25-1.6 33.15-1.2L33.15-1.2Q33-0.3 32.87 0.03 32.75 0.35 32.45 0.35L32.45 0.35Q31.85 0.35 31.1 0.05 30.35-0.25 30.35-0.7L30.35-0.7Q30.35-1.35 30.65-2.6L30.65-2.6 35-21.05Q38.65-36.65 44.3-45.53 49.95-54.4 57.55-54.4L57.55-54.4ZM82.25-17.65Q82.75-17.5 82.75-16.65L82.75-16.65Q82.75-15.4 81.75-14.08 80.75-12.75 79.02-11.9 77.3-11.05 75.25-11.05L75.25-11.05Q72.5-11.05 70.4-12.55L70.4-12.55Q70.1-11.1 69.65-9.6L69.65-9.6Q69.5-9.05 69-7.08 68.5-5.1 68.3-3.55L68.3-3.55Q67.95-2.75 66.9-1.83 65.85-0.9 64.4-0.25 62.95 0.4 61.55 0.4L61.55 0.4Q60 0.4 58.55-0.4 57.1-1.2 56.17-2.55 55.25-3.9 55.25-5.55L55.25-5.55Q55.95-7.65 56.4-9.5 56.85-11.35 57.25-13.25L57.25-13.25 57.75-15.75Q58-16.9 59.1-18.03 60.2-19.15 61.77-19.88 63.35-20.6 64.95-20.6L64.95-20.6Q65.55-20.6 66.65-20.4L66.65-20.4Q66.8-21.55 67.17-22 67.55-22.45 68.4-22.45L68.4-22.45Q68.9-22.45 69.55-22.3L69.55-22.3Q69.3-20.9 69.3-19.9L69.3-19.9Q69.3-17 71.05-15 72.8-13 75.8-13L75.8-13Q78.05-13 79.67-14.2 81.3-15.4 82.25-17.65L82.25-17.65ZM66.1-4.4Q66.5-6.4 67.25-8.95L67.25-8.95Q68.25-12.3 68.55-14.35L68.55-14.35Q67.45-15.75 67.05-17.75L67.05-17.75Q67.05-17.95 66.97-18.07 66.9-18.2 66.65-18.25L66.65-18.25Q65.9-18.55 64.95-18.55L64.95-18.55Q63.1-18.55 61.75-17.55 60.4-16.55 60.05-15.15L60.05-15.15Q59.9-14.55 58.95-10.45L58.95-10.45Q58.5-8.05 57.85-5.7L57.85-5.7Q57.85-3.85 59.1-2.83 60.35-1.8 61.75-1.8L61.75-1.8Q62.95-1.8 64.32-2.65 65.7-3.5 66.1-4.4L66.1-4.4ZM103.29-10.25Q104.04-9.8 104.04-8.75L104.04-8.75Q104.04-8.15 103.82-7.7 103.59-7.25 103.19-6.75L103.19-6.75Q100.74-3.8 96.79-2.23 92.84-0.65 89.42-0.18 85.99 0.3 83.84 0.3L83.84 0.3Q82.54 0.3 82.04 0.05 81.54-0.2 81.54-0.95L81.54-0.95Q81.54-1.35 81.69-1.8L81.69-1.8Q83.09-1.55 83.64-1.55L83.64-1.55Q86.14-1.55 87.79-3.43 89.44-5.3 90.37-7.93 91.29-10.55 92.24-14.4L92.24-14.4Q92.39-14.85 92.59-15.75L92.59-15.75Q92.59-16.4 91.57-17.35 90.54-18.3 89.84-18.3L89.84-18.3Q89.19-18.3 87.79-17.48 86.39-16.65 85.07-15.08 83.74-13.5 83.14-11.45L83.14-11.45Q81.69-6.35 80.67-1.95 79.64 2.45 78.39 8.35L78.39 8.35Q75.79 20.55 73.79 28.35L73.79 28.35Q73.44 29.7 72.89 30.38 72.34 31.05 71.59 31.33 70.84 31.6 69.14 31.95L69.14 31.95Q66.99 32.35 65.24 32.85L65.24 32.85 64.69 32.6Q67.49 31.35 68.79 30.2 70.09 29.05 70.74 27.38 71.39 25.7 72.39 21.7L72.39 21.7Q78.79-3.45 83.79-24.55L83.79-24.55Q83.89-25 84.09-25.18 84.29-25.35 84.59-25.45L84.59-25.45Q85.09-25.65 85.79-25.98 86.49-26.3 86.74-26.35L86.74-26.35Q86.89-26.3 87.19-25.9L87.19-25.9Q87.09-25.55 86.94-25.35L86.94-25.35Q86.54-24.45 84.94-18.9L84.94-18.9Q84.49-17.4 84.39-17.05L84.39-17.05Q85.74-18.6 87.62-19.8 89.49-21 90.59-21L90.59-21Q91.49-21 92.69-20.18 93.89-19.35 94.74-18.2 95.59-17.05 95.59-16.1L95.59-16.1 94.99-13.8Q94.24-10.75 93.57-8.7 92.89-6.65 91.59-4.75 90.29-2.85 88.29-1.7L88.29-1.7Q91.24-2.1 93.54-2.9 95.84-3.7 98.24-5.43 100.64-7.15 103.29-10.25L103.29-10.25ZM121.24 0.6Q118.34 0.6 115.54-0.25 112.74-1.1 112.24-2.1L112.24-2.1Q112.49-3.3 112.69-5.38 112.89-7.45 112.89-8.55L112.89-8.55Q113.29-8.9 114.04-8.9L114.04-8.9Q114.04-6.05 114.66-4.45 115.29-2.85 116.74-2.13 118.19-1.4 120.84-1.4L120.84-1.4Q125.54-1.4 128.66-3.38 131.79-5.35 131.79-9L131.79-9Q131.79-10.9 130.69-12.78 129.59-14.65 126.79-17.25L126.79-17.25 125.44-18.5Q122.84-20.85 121.61-22.58 120.39-24.3 120.39-26.75L120.39-26.75Q120.39-29.15 121.61-31.13 122.84-33.1 125.11-34.23 127.39-35.35 130.34-35.35L130.34-35.35Q133.24-35.35 135.29-34.35 137.34-33.35 137.94-32L137.94-32Q137.94-30.5 137.49-28.55 137.04-26.6 136.94-26.25L136.94-26.25Q136.29-26.25 135.69-26.45L135.69-26.45 135.84-27.45Q135.94-28.35 135.94-28.9L135.94-28.9Q135.94-31.2 134.71-32.23 133.49-33.25 130.89-33.25L130.89-33.25Q127.24-33.25 125.06-31.6 122.89-29.95 122.89-27.3L122.89-27.3Q122.89-25.25 124.19-23.58 125.49-21.9 128.19-19.5L128.19-19.5 129.24-18.55Q132.44-15.65 133.61-13.85 134.79-12.05 134.79-9.7L134.79-9.7Q134.79-6.3 132.71-3.98 130.64-1.65 127.51-0.53 124.39 0.6 121.24 0.6L121.24 0.6ZM176.99-11.55Q177.04-10 175.11-7.15 173.19-4.3 170.39-2.1 167.59 0.1 164.89 0.1L164.89 0.1Q162.99 0.1 161.76-1.13 160.54-2.35 160.54-4.85L160.54-4.85Q160.54-6.9 161.21-9.47 161.89-12.05 163.04-15.6L163.04-15.6Q163.39-16.55 163.69-17.6L163.69-17.6Q163.69-17.75 163.49-17.88 163.29-18 163.09-18L163.09-18Q162.44-18 160.51-16.13 158.59-14.25 156.61-11.83 154.64-9.4 153.99-8.15L153.99-8.15Q153.49-6.6 152.34-1.65L152.34-1.65Q152.14-0.8 152.01-0.5 151.89-0.2 151.59-0.2L151.59-0.2Q151.14-0.2 150.56-0.75 149.99-1.3 149.99-1.85L149.99-1.85Q149.99-2.4 150.49-4.25L150.49-4.25Q152.59-11.95 153.89-17.6L153.89-17.6Q153.59-18 153.14-18L153.14-18Q152.39-18 150.59-16.15 148.79-14.3 146.84-11.48 144.89-8.65 143.64-5.9L143.64-5.9Q142.89-3.45 142.29-0.25L142.29-0.25Q141.79-0.25 140.99-0.6 140.19-0.95 140.19-1.3L140.19-1.3Q140.19-1.7 140.69-3.55L140.69-3.55 144.94-20.1Q145.04-20.55 145.19-20.75 145.34-20.95 145.64-20.95L145.64-20.95Q145.94-20.95 146.66-20.65 147.39-20.35 147.59-20.15L147.59-20.15 147.14-18.55Q146.99-17.95 146.46-16.07 145.94-14.2 145.49-12.2L145.49-12.2Q147.04-14.9 148.71-16.68 150.39-18.45 151.79-19.28 153.19-20.1 153.94-20.1L153.94-20.1Q154.49-20.1 155.34-19.5 156.19-18.9 156.19-18.5L156.19-18.5Q155.74-15.75 154.89-12.3L154.89-12.3Q156.94-15.1 159.79-17.88 162.64-20.65 164.14-20.65L164.14-20.65Q164.84-20.65 165.64-20.1 166.44-19.55 166.49-18.8L166.49-18.8Q164.89-13.85 164.01-10.65 163.14-7.45 163.14-4.9L163.14-4.9Q163.14-3.4 163.64-2.73 164.14-2.05 165.44-2.05L165.44-2.05Q168.49-2.05 171.34-5.38 174.19-8.7 175.69-13.2L175.69-13.2Q176.24-13.2 176.61-12.7 176.99-12.2 176.99-11.55L176.99-11.55ZM202.08-11.55Q202.73-11.55 202.73-10.25L202.73-10.25Q202.73-7.95 200.71-5.4 198.68-2.85 195.81-1.13 192.93 0.6 190.53 0.6L190.53 0.6Q188.58 0.6 187.53-0.6 186.48-1.8 186.28-3.7L186.28-3.7Q185.03-1.9 183.13-0.75 181.23 0.4 179.73 0.4L179.73 0.4Q178.43 0.4 177.16-0.48 175.88-1.35 175.08-2.63 174.28-3.9 174.23-5.05L174.23-5.05 176.68-15.15Q176.98-16.35 178.21-17.73 179.43-19.1 181.18-20 182.93-20.9 184.73-20.9L184.73-20.9Q187.03-20.9 188.78-19.35L188.78-19.35Q189.23-20.55 189.46-20.85 189.68-21.15 190.13-21.2L190.13-21.2 192.58-21.45 192.73-21.35Q191.73-20.55 191.28-18.85L191.28-18.85Q189.73-13.05 189.16-10.3 188.58-7.55 188.58-5.45L188.58-5.45Q188.58-3.35 189.13-2.38 189.68-1.4 190.98-1.4L190.98-1.4Q192.58-1.4 194.81-2.7 197.03-4 199.03-6.33 201.03-8.65 202.08-11.55L202.08-11.55ZM179.93-1.95Q180.78-1.95 182.01-2.55 183.23-3.15 184.31-4.28 185.38-5.4 185.78-6.85L185.78-6.85 186.73-10.95Q186.93-11.95 187.43-14.18 187.93-16.4 188.23-17.6L188.23-17.6Q186.83-19 184.83-19L184.83-19Q183.28-19 182.03-18.18 180.78-17.35 179.98-16.18 179.18-15 178.98-14.1L178.98-14.1 176.98-5.2Q177.08-3.95 177.98-2.95 178.88-1.95 179.93-1.95L179.93-1.95ZM222.48-17.85Q222.68-17.8 222.83-17.55 222.98-17.3 222.98-17L222.98-17Q222.98-15.95 222.01-14.98 221.03-14 219.46-13.4 217.88-12.8 216.28-12.8L216.28-12.8Q213.78-12.8 212.01-14.1 210.23-15.4 209.73-17.75L209.73-17.75Q207.48-17.5 205.61-14.9 203.73-12.3 202.98-9.25L202.98-9.25Q202.88-8.75 202.23-6.18 201.58-3.6 200.98-0.1L200.98-0.1Q200.93 0.05 200.86 0.13 200.78 0.2 200.53 0.2L200.53 0.2Q200.18 0.2 199.48-0.1 198.78-0.4 198.78-0.75L198.78-0.75Q198.78-1.45 199.03-2.6L199.03-2.6Q202.08-16.7 202.98-20.05L202.98-20.05Q203.08-20.5 203.21-20.65 203.33-20.8 203.63-20.8L203.63-20.8Q203.83-20.8 204.48-20.48 205.13-20.15 205.53-19.8L205.53-19.8 204.63-16.9 204.33-15.9Q205.48-17.7 206.98-18.8 208.48-19.9 210.18-19.9L210.18-19.9Q210.68-19.9 211.18-19.8 211.68-19.7 211.88-19.55L211.88-19.55Q211.88-17.1 213.16-15.93 214.43-14.75 216.73-14.75L216.73-14.75Q218.78-14.75 220.13-15.45 221.48-16.15 222.48-17.85L222.48-17.85ZM237.68-8.3Q237.93-7.95 237.93-7.45L237.93-7.45Q237.93-7.05 237.78-6.75 237.63-6.45 237.28-6L237.28-6Q235.98-4.45 233.65-2.93 231.33-1.4 228.78-0.45 226.23 0.5 224.33 0.5L224.33 0.5Q222.18 0.5 220.75-0.83 219.33-2.15 219.33-4.8L219.33-4.8Q219.33-8.15 221.73-17.4L221.73-17.4 216.43-17.2Q216.33-17.25 216.15-17.38 215.98-17.5 215.93-17.6L215.93-17.6Q216.08-17.85 216.48-18.6 216.88-19.35 217.18-19.65L217.18-19.65 222.33-19.6Q223.98-25.7 226.13-32.15L226.13-32.15Q227.03-32.85 228.43-33.68 229.83-34.5 230.13-34.5L230.13-34.5Q230.58-34.3 230.68-33.95L230.68-33.95Q229.78-33.6 229.28-33.02 228.78-32.45 228.28-31.15L228.28-31.15Q226.83-27.45 224.78-19.6L224.78-19.6 237.53-19.55 237.58-18.75Q237.58-18.35 237.43-18.2 237.28-18.05 236.73-18L236.73-18Q236.03-17.95 224.23-17.5L224.23-17.5Q221.93-8.1 221.93-4.95L221.93-4.95Q221.93-3.2 222.78-2.38 223.63-1.55 225.38-1.55L225.38-1.55Q230.48-1.55 237.68-8.3L237.68-8.3ZM228.78 9.25Q228.33 9.25 228.18 8.9L228.18 8.9Q231.23 4.7 233.4 1.28 235.58-2.15 237.83-6.65L237.83-6.65Q238.58-6.35 239.13-5.83 239.68-5.3 239.68-4.75L239.68-4.75Q239.68-4.25 239.23-3.6L239.23-3.6Q236.23 0.6 234.23 3.28 232.23 5.95 229.88 8.65L229.88 8.65Q229.38 9.25 228.78 9.25L228.78 9.25ZM287.57-2.35Q287.82-1.4 287.82 1.9L287.82 1.9 287.12 1.75Q287.02 0.8 286.77 0.48 286.52 0.15 285.92-0.05L285.92-0.05Q284.67-0.45 281.62-0.68 278.57-0.9 274.72-0.9L274.72-0.9Q269.77-0.9 265.57-0.5 261.37-0.1 258.77 0.65L258.77 0.65Q258.42 0.65 257.97-0.13 257.52-0.9 257.52-1.45L257.52-1.45Q257.52-1.65 257.62-1.73 257.72-1.8 257.97-1.85L257.97-1.85Q260.37-2.25 262.15-3.33 263.92-4.4 265.82-8.2 267.72-12 269.22-19.6L269.22-19.6Q271.02-28.7 272.02-33.6L272.02-33.6Q272.17-34.25 272.4-34.55 272.62-34.85 273.07-35L273.07-35Q274.37-35.55 276.37-35.88 278.37-36.2 280.47-36.2L280.47-36.2Q280.77-36.15 281.02-35.6 281.27-35.05 281.37-34.48 281.47-33.9 281.37-33.8L281.37-33.8Q280.87-33.95 279.82-34.02 278.77-34.1 278.07-34.1L278.07-34.1Q276.32-34.1 275.55-33.35 274.77-32.6 274.47-31.25L274.47-31.25Q273.72-27.9 273.12-24.8L273.12-24.8Q271.87-18.8 271.22-16.25L271.22-16.25Q269.77-10.4 267.97-7.05 266.17-3.7 263.37-2.2L263.37-2.2Q264.97-2.3 267.42-2.55 269.87-2.8 271.27-2.9L271.27-2.9Q275.37-3.35 278.05-3.58 280.72-3.8 282.92-3.8L282.92-3.8Q285.32-3.8 286.32-3.48 287.32-3.15 287.57-2.35L287.57-2.35ZM299.02 0.35Q297.27 0.35 295.89-0.83 294.52-2 294.52-4.3L294.52-4.3Q295.27-6.7 297.12-14.95L297.12-14.95Q298.02-19 298.22-19.8L298.22-19.8Q298.87-20.9 300.02-20.9L300.02-20.9Q300.77-20.9 300.77-20.4L300.77-20.4Q300.42-19.15 299.79-16.43 299.17-13.7 298.82-12.15L298.82-12.15Q297.47-5.95 296.97-4.2L296.97-4.2Q296.97-3.05 297.64-2.43 298.32-1.8 299.42-1.8L299.42-1.8Q301.92-1.8 304.44-3.58 306.97-5.35 308.89-7.7 310.82-10.05 311.77-11.75L311.77-11.75Q312.07-11.65 312.17-11.43 312.27-11.2 312.27-10.65L312.27-10.65Q312.27-9.9 311.77-9.1L311.77-9.1Q309.07-4.85 305.72-2.25 302.37 0.35 299.02 0.35L299.02 0.35ZM301.32-27.15Q300.62-27.15 300.22-27.63 299.82-28.1 299.82-28.85L299.82-28.85Q299.82-29.85 300.47-30.68 301.12-31.5 302.12-31.5L302.12-31.5Q302.92-31.5 303.29-31 303.67-30.5 303.67-29.8L303.67-29.8Q303.67-28.8 302.99-27.98 302.32-27.15 301.32-27.15L301.32-27.15ZM320.57-22.5Q323.52-21.6 324.92-20.28 326.32-18.95 326.32-16.3L326.32-16.3Q326.32-14.25 325.34-12.48 324.37-10.7 322.37-8.65 320.37-6.6 315.72-2.35L315.72-2.35Q314.87-1.6 313.17 0L313.17 0 311.12 0Q311.32-0.8 311.32-1.15L311.32-1.15 311.27-14.2 311.27-15.95Q311.27-17.45 311.04-17.88 310.82-18.3 309.92-18.3L309.92-18.3 306.47-18.35Q306.47-19 306.82-19.35L306.82-19.35Q308.62-19.55 309.49-19.78 310.37-20 311.07-20.3 311.77-20.6 312.22-20.8L312.22-20.8Q313.37-20.4 313.67-19.35 313.97-18.3 313.97-16.55L313.97-16.55Q313.97-12.05 313.82-7.7L313.82-7.7Q313.82-6.95 313.72-2.65L313.72-2.65Q319.42-8.6 321.47-11.65 323.52-14.7 323.52-16.85L323.52-16.85Q323.52-20.1 320.07-22.25L320.07-22.25 320.57-22.5ZM351.16-11.95Q352.06-11.8 352.06-10.95L352.06-10.95Q352.06-8.95 349.49-6.28 346.91-3.6 343.41-1.68 339.91 0.25 337.56 0.25L337.56 0.25Q335.31 0.25 333.66-0.93 332.01-2.1 331.14-3.55 330.26-5 330.26-5.7L330.26-5.7Q331.06-8.55 332.01-13.6L332.01-13.6 332.56-16.4Q332.76-17.4 334.01-18.48 335.26-19.55 336.81-20.28 338.36-21 339.31-21L339.31-21Q340.06-21 341.14-20.53 342.21-20.05 343.04-19.05 343.86-18.05 343.86-16.5L343.86-16.5Q343.86-14.7 342.66-13.1 341.46-11.5 339.11-10.5 336.76-9.5 333.46-9.5L333.46-9.5 332.76-6.15Q332.76-5.7 333.29-4.65 333.81-3.6 334.99-2.75 336.16-1.9 337.96-1.9L337.96-1.9Q340.36-1.9 343.01-3.48 345.66-5.05 347.86-7.4 350.06-9.75 351.16-11.95L351.16-11.95ZM338.91-18.95Q338.31-18.95 337.36-18.45 336.41-17.95 335.64-17.2 334.86-16.45 334.71-15.8L334.71-15.8Q334.21-13.55 333.81-11.25L333.81-11.25Q337.66-11.4 339.61-12.78 341.56-14.15 341.56-15.9L341.56-15.9Q341.56-17.15 340.66-18.05 339.76-18.95 338.91-18.95L338.91-18.95ZM368.86 0.6Q365.96 0.6 363.16-0.25 360.36-1.1 359.86-2.1L359.86-2.1Q360.11-3.3 360.31-5.38 360.51-7.45 360.51-8.55L360.51-8.55Q360.91-8.9 361.66-8.9L361.66-8.9Q361.66-6.05 362.28-4.45 362.91-2.85 364.36-2.13 365.81-1.4 368.46-1.4L368.46-1.4Q373.16-1.4 376.28-3.38 379.41-5.35 379.41-9L379.41-9Q379.41-10.9 378.31-12.78 377.21-14.65 374.41-17.25L374.41-17.25 373.06-18.5Q370.46-20.85 369.23-22.58 368.01-24.3 368.01-26.75L368.01-26.75Q368.01-29.15 369.23-31.13 370.46-33.1 372.73-34.23 375.01-35.35 377.96-35.35L377.96-35.35Q380.86-35.35 382.91-34.35 384.96-33.35 385.56-32L385.56-32Q385.56-30.5 385.11-28.55 384.66-26.6 384.56-26.25L384.56-26.25Q383.91-26.25 383.31-26.45L383.31-26.45 383.46-27.45Q383.56-28.35 383.56-28.9L383.56-28.9Q383.56-31.2 382.33-32.23 381.11-33.25 378.51-33.25L378.51-33.25Q374.86-33.25 372.68-31.6 370.51-29.95 370.51-27.3L370.51-27.3Q370.51-25.25 371.81-23.58 373.11-21.9 375.81-19.5L375.81-19.5 376.86-18.55Q380.06-15.65 381.23-13.85 382.41-12.05 382.41-9.7L382.41-9.7Q382.41-6.3 380.33-3.98 378.26-1.65 375.13-0.53 372.01 0.6 368.86 0.6L368.86 0.6ZM408.76-8.3Q409.01-7.95 409.01-7.45L409.01-7.45Q409.01-7.05 408.86-6.75 408.71-6.45 408.36-6L408.36-6Q407.06-4.45 404.73-2.93 402.41-1.4 399.86-0.45 397.31 0.5 395.41 0.5L395.41 0.5Q393.26 0.5 391.83-0.83 390.41-2.15 390.41-4.8L390.41-4.8Q390.41-8.15 392.81-17.4L392.81-17.4 387.51-17.2Q387.41-17.25 387.23-17.38 387.06-17.5 387.01-17.6L387.01-17.6Q387.16-17.85 387.56-18.6 387.96-19.35 388.26-19.65L388.26-19.65 393.41-19.6Q395.06-25.7 397.21-32.15L397.21-32.15Q398.11-32.85 399.51-33.68 400.91-34.5 401.21-34.5L401.21-34.5Q401.66-34.3 401.76-33.95L401.76-33.95Q400.86-33.6 400.36-33.02 399.86-32.45 399.36-31.15L399.36-31.15Q397.91-27.45 395.86-19.6L395.86-19.6 408.61-19.55 408.66-18.75Q408.66-18.35 408.51-18.2 408.36-18.05 407.81-18L407.81-18Q407.11-17.95 395.31-17.5L395.31-17.5Q393.01-8.1 393.01-4.95L393.01-4.95Q393.01-3.2 393.86-2.38 394.71-1.55 396.46-1.55L396.46-1.55Q401.56-1.55 408.76-8.3L408.76-8.3ZM422-20.9Q422.65-20.9 423.48-20.38 424.3-19.85 424.5-19.2L424.5-19.2Q423.9-17.2 423.35-15L423.35-15Q423.1-14.15 422.3-11.28 421.5-8.4 420.2-4.25L420.2-4.25Q417.3 4.9 414.48 11.03 411.65 17.15 406.75 21.4 401.85 25.65 394.55 25.65L394.55 25.65Q390.9 25.65 388.45 24.55 386 23.45 384.83 21.7 383.65 19.95 383.65 17.85L383.65 17.85Q383.65 17.15 383.8 16.78 383.95 16.4 384.05 16.1L384.05 16.1Q385.6 19.25 388.18 20.88 390.75 22.5 395 22.5L395 22.5Q400.7 22.5 404.85 19.58 409 16.65 412 11.03 415 5.4 417.4-3.3L417.4-3.3Q415.9-1.95 413.98-0.98 412.05 0 410.8 0L410.8 0Q409.85 0 408.98-0.6 408.1-1.2 407.53-2.13 406.95-3.05 406.95-3.85L406.95-3.85Q408.3-10 409.5-15.1L409.5-15.1Q410.1-17.8 410.45-19.3L410.45-19.3Q410.65-20.1 411-20.4 411.35-20.7 412.1-20.7L412.1-20.7Q412.75-20.7 413.4-20.45L413.4-20.45 409.6-4.45Q409.6-3.7 410.23-3.05 410.85-2.4 411.6-2.4L411.6-2.4Q412.7-2.4 415-3.85 417.3-5.3 418.1-6.35L418.1-6.35Q419.2-9.05 419.9-11.75 420.6-14.45 421.5-18.6L421.5-18.6 422-20.9ZM450.45-14Q450.95-14 451.25-13.53 451.55-13.05 451.55-12.35L451.55-12.35Q451.55-11.45 451.05-10.45L451.05-10.45Q449.65-7.5 447.05-5.03 444.45-2.55 441.43-1.1 438.4 0.35 435.8 0.35L435.8 0.35Q430.5 0.35 430.5-5.8L430.5-5.8Q430.5-10.1 432.85-19.63 435.2-29.15 439.65-44.9L439.65-44.9Q440.6-48.15 441.73-49.7 442.85-51.25 444.3-51.25L444.3-51.25Q445.35-51.25 446.32-50.53 447.3-49.8 447.95-48.3 448.6-46.8 448.6-44.6L448.6-44.6Q448.6-41.05 446.93-35.6 445.25-30.15 441.9-24.1 438.55-18.05 433.85-12.9L433.85-12.9Q433-8.5 433-6.35L433-6.35Q433-3.95 433.98-2.93 434.95-1.9 436.7-1.9L436.7-1.9Q439.15-1.9 441.93-3.55 444.7-5.2 447-8 449.3-10.8 450.45-14L450.45-14ZM440.95-41.75Q436.75-26.65 434.6-16.7L434.6-16.7Q438.3-21.35 440.98-26.85 443.65-32.35 444.98-37.15 446.3-41.95 446.3-44.7L446.3-44.7Q446.3-46.25 445.85-47.38 445.4-48.5 444.35-48.5L444.35-48.5Q443.75-48.5 442.93-47.25 442.1-46 440.95-41.75L440.95-41.75ZM453.2 0.35Q451.45 0.35 450.07-0.83 448.7-2 448.7-4.3L448.7-4.3Q449.45-6.7 451.3-14.95L451.3-14.95Q452.2-19 452.4-19.8L452.4-19.8Q453.05-20.9 454.2-20.9L454.2-20.9Q454.95-20.9 454.95-20.4L454.95-20.4Q454.6-19.15 453.97-16.43 453.35-13.7 453-12.15L453-12.15Q451.65-5.95 451.15-4.2L451.15-4.2Q451.15-3.05 451.82-2.43 452.5-1.8 453.6-1.8L453.6-1.8Q456.1-1.8 458.62-3.58 461.15-5.35 463.07-7.7 465-10.05 465.95-11.75L465.95-11.75Q466.25-11.65 466.35-11.43 466.45-11.2 466.45-10.65L466.45-10.65Q466.45-9.9 465.95-9.1L465.95-9.1Q463.25-4.85 459.9-2.25 456.55 0.35 453.2 0.35L453.2 0.35ZM455.5-27.15Q454.8-27.15 454.4-27.63 454-28.1 454-28.85L454-28.85Q454-29.85 454.65-30.68 455.3-31.5 456.3-31.5L456.3-31.5Q457.1-31.5 457.47-31 457.85-30.5 457.85-29.8L457.85-29.8Q457.85-28.8 457.17-27.98 456.5-27.15 455.5-27.15L455.5-27.15ZM466.1 0.65Q463.69 0.65 462.02-0.5 460.35-1.65 460.35-3.15L460.35-3.15Q460.35-3.95 460.8-4.45 461.25-4.95 461.8-5.05L461.8-5.05Q462.35-3.15 463.6-2.2 464.85-1.25 466.65-1.25L466.65-1.25Q468.9-1.25 470.25-2.53 471.6-3.8 471.6-5.5L471.6-5.5Q471.6-6.75 470.87-7.7 470.15-8.65 468.69-9.9L468.69-9.9Q467.1-11.3 466.32-12.33 465.55-13.35 465.55-14.8L465.55-14.8Q465.55-16.35 466.52-17.75 467.5-19.15 469.02-20 470.55-20.85 472.19-20.85L472.19-20.85Q473.65-20.85 474.87-20.23 476.1-19.6 476.1-18.55L476.1-18.55Q476.1-17.55 474.9-16.45L474.9-16.45Q474.25-17.6 473.3-18.23 472.35-18.85 471.3-18.85L471.3-18.85Q469.69-18.85 468.87-17.68 468.05-16.5 468.05-15.35L468.05-15.35Q468.05-14.4 468.69-13.65 469.35-12.9 470.75-11.75L470.75-11.75Q472.44-10.3 473.35-9.15 474.25-8 474.25-6.45L474.25-6.45Q474.25-4.8 473.17-3.15 472.1-1.5 470.22-0.43 468.35 0.65 466.1 0.65L466.1 0.65ZM507.84-54.4Q512.14-54.4 514.64-52.03 517.14-49.65 517.14-45.35L517.14-45.35 516.79-44.75Q515.69-48.15 513.34-49.78 510.99-51.4 507.69-51.4L507.69-51.4Q500.74-51.4 495.89-43.58 491.04-35.75 487.49-21L487.49-21 486.19-15.35 485.54-12.45Q487.59-15.35 490.74-18.07 493.89-20.8 495.49-20.8L495.49-20.8Q495.89-20.8 496.67-20.05 497.44-19.3 497.44-18.95L497.44-18.95Q496.49-16.2 495.19-10.9 493.89-5.6 493.89-4.15L493.89-4.15Q493.89-2.75 494.34-2.13 494.79-1.5 496.19-1.5L496.19-1.5Q498.69-1.5 501.04-3.4 503.39-5.3 505.12-7.73 506.84-10.15 507.74-12L507.74-12Q508.09-11.9 508.29-11.65 508.49-11.4 508.54-10.9L508.54-10.9 508.54-10.75Q508.54-10.15 508.14-9.35L508.14-9.35Q505.84-5.15 502.24-2.27 498.64 0.6 495.24 0.6L495.24 0.6Q493.49 0.6 492.44-0.5 491.39-1.6 491.39-3.6L491.39-3.6Q491.39-5.55 492.02-8.4 492.64-11.25 493.69-15.1L493.69-15.1Q493.64-14.85 494.24-17.15L494.24-17.15Q494.19-17.35 493.99-17.5 493.79-17.65 493.64-17.65L493.64-17.65Q493.14-17.65 491.29-16 489.44-14.35 487.54-12.05 485.64-9.75 484.69-7.75L484.69-7.75Q484.19-5.75 483.69-2.75L483.69-2.75Q483.64-2.4 483.59-2 483.54-1.6 483.44-1.2L483.44-1.2Q483.29-0.3 483.17 0.03 483.04 0.35 482.74 0.35L482.74 0.35Q482.14 0.35 481.39 0.05 480.64-0.25 480.64-0.7L480.64-0.7Q480.64-1.35 480.94-2.6L480.94-2.6 485.29-21.05Q488.94-36.65 494.59-45.53 500.24-54.4 507.84-54.4L507.84-54.4ZM511.99-10.5Q511.49-10.5 511.09-10.63 510.69-10.75 510.69-10.95L510.69-10.95 512.34-20.4Q512.64-22.25 513.41-26.83 514.19-31.4 514.59-33.2L514.59-33.2Q514.94-34.95 515.29-35.48 515.64-36 516.49-36L516.49-36Q517.94-36 519.09-35.25L519.09-35.25Q518.54-34.8 518.34-34.45 518.14-34.1 517.94-33.25L517.94-33.25Q516.54-27.75 515.34-22.3 514.14-16.85 512.84-10.75L512.84-10.75Q512.74-10.5 511.99-10.5L511.99-10.5ZM510.04 0.5Q508.99 0.5 508.37-0.18 507.74-0.85 507.74-2.05L507.74-2.05Q507.74-3.45 508.54-4.4 509.34-5.35 510.64-5.35L510.64-5.35Q511.69-5.35 512.32-4.7 512.94-4.05 512.94-2.85L512.94-2.85Q512.94-1.45 512.14-0.48 511.34 0.5 510.04 0.5L510.04 0.5Z" opacity="1" transform="matrix(1,0,0,1,0,0)" fill="black" class="slogan-text-1" id="SvgjsPath1904"></path></svg></g></svg></g></svg></g></svg></g><g></g></svg></g><defs><mask></mask></defs></svg><rect width="383.7475313727848" height="247.2" fill="black" stroke="none" visibility="hidden"></rect></g></mask></svg><rect width="383.7475313727848" height="247.2" fill="black" stroke="none" visibility="hidden"></rect></g></mask><linearGradient x1="0" x2="1" y1="0.5" y2="0.5" id="739f24d9-d97a-432a-a76a-afab186c3e2a"><stop stop-color="#ffa62e" offset="0"></stop><stop stop-color="#f71b3d" offset="1"></stop></linearGradient></svg><rect width="383.7475313727848" height="247.2" fill="none" stroke="none" visibility="hidden"></rect></g></svg></g></svg>